<svg xmlns="http://www.w3.org/2000/svg" xmlns:xlink="http://www.w3.org/1999/xlink" width="171" height="171" viewBox="0 0 171 171">
    <defs>
        <ellipse id="b" cx="57.156" cy="64.522" rx="54.724" ry="54.783"/>
        <filter id="a" width="202.3%" height="202.2%" x="-51.2%" y="-36.5%" filterUnits="objectBoundingBox">
            <feOffset dy="16" in="SourceAlpha" result="shadowOffsetOuter1"/>
            <feGaussianBlur in="shadowOffsetOuter1" result="shadowBlurOuter1" stdDeviation="16"/>
            <feColorMatrix in="shadowBlurOuter1" values="0 0 0 0 0.247058824 0 0 0 0 0.447058824 0 0 0 0 0.588235294 0 0 0 0.08 0"/>
        </filter>
    </defs>
    <g fill="none" fill-rule="evenodd">
        <g transform="translate(28 5)">
            <use fill="#000" filter="url(#a)" xlink:href="#b"/>
            <use fill="#FFF" xlink:href="#b"/>
            <ellipse cx="6.992" cy="121.435" fill="#21AF9D" fill-opacity=".08" rx="2.736" ry="2.739"/>
            <ellipse cx="111.271" cy="21.304" fill="#21AF9D" fill-opacity=".08" rx="3.04" ry="3.043"/>
            <ellipse cx="11.249" cy="106.826" fill="#5E73A2" fill-opacity=".376" rx="1" ry="1"/>
            <ellipse cx="3.648" cy="5.478" stroke="#5E73A2" rx="3.648" ry="3.652"/>
            <ellipse cx="119.784" cy="1.217" stroke="#0D8F98" rx="1.216" ry="1.217"/>
            <ellipse cx="109.751" cy="133.609" fill="#0D8F98" fill-opacity=".13" rx="6.384" ry="6.391"/>
        </g>
        <g fill-rule="nonzero">
            <path fill="#F4F4F4" d="M109.65 91.932H65.636c-3.736 0-6.765-3.038-6.765-6.784V57.726c0-3.747 3.029-6.784 6.765-6.784h44.013c3.736 0 6.766 3.037 6.766 6.784v27.422c0 3.747-3.03 6.784-6.767 6.784z"/>
            <path fill="#81E2D7" d="M111.199 53.936h-47.11a7.261 7.261 0 0 0-4.97 1.976 6.817 6.817 0 0 0-.247 1.814v12.35c7.67 2.56 17.743 4.125 28.772 4.125s21.101-1.552 28.772-4.112V57.738a6.681 6.681 0 0 0-.248-1.814 7.157 7.157 0 0 0-4.97-1.988z"/>
            <path fill="#00A896" d="M109.65 50.954h-3.693c3.737 0 6.765 3.037 6.766 6.784V85.16c0 3.747-3.03 6.784-6.766 6.784h3.692c3.737 0 6.766-3.037 6.766-6.784V57.726c-.006-3.743-3.033-6.773-6.766-6.772z"/>
            <path fill="#81E2D7" d="M80.878 50.104V47.93a.996.996 0 0 1 .99-.992h11.535a.996.996 0 0 1 .989.992v2.174h4.213V47.93c0-2.88-2.327-5.216-5.2-5.219H81.87c-1.38 0-2.704.55-3.68 1.529a5.226 5.226 0 0 0-1.524 3.69v2.174h4.213zM111.2 50.954H64.088a7.22 7.22 0 0 0-5.119 2.123 7.26 7.26 0 0 0-2.117 5.133v6.51a2.378 2.378 0 0 0 1.598 2.237c7.72 2.647 17.955 4.262 29.193 4.262 11.239 0 21.474-1.615 29.193-4.262a2.354 2.354 0 0 0 1.599-2.236V58.21a7.26 7.26 0 0 0-2.118-5.133 7.22 7.22 0 0 0-5.119-2.123z"/>
            <path fill="#00A896" d="M111.199 50.954h-3.482a7.382 7.382 0 0 1 5.232 2.171 7.423 7.423 0 0 1 2.165 5.247v6.66a2.419 2.419 0 0 1-1.636 2.286 80.283 80.283 0 0 1-14.93 3.38 81.263 81.263 0 0 0 18.289-3.74 2.354 2.354 0 0 0 1.598-2.237V58.21a7.259 7.259 0 0 0-2.117-5.133 7.219 7.219 0 0 0-5.12-2.123zM89.613 91.932h-3.94v-40.99c0-.597.483-1.081 1.078-1.081h1.784a1.08 1.08 0 0 1 1.078 1.08v40.99z"/>
            <path fill="#F4F4F4" d="M91.337 69.803a3.7 3.7 0 0 0-3.148-3.663 3.692 3.692 0 0 0-4.076 2.581 3.706 3.706 0 0 0 1.945 4.424v2.125c0 .878.71 1.59 1.586 1.59.876 0 1.586-.712 1.586-1.59v-2.125a3.71 3.71 0 0 0 2.107-3.342z"/>
            <path fill="#2D6F84" d="M111.199 50.022H97.432l-.194.414h1.176a.937.937 0 0 0 .931-.933v-2.186c-.003-3.395-2.747-6.147-6.133-6.15H81.675c-3.382.008-6.12 2.759-6.121 6.15v2.174c.002.514.417.93.93.933h1.177l.195-.413H66.27a.932.932 0 0 0-.879.931c0 .496.386.905.879.932h18.487v14.313a4.61 4.61 0 0 0-1.725 3.603c0 .125.012.261.012.385-8.996-.36-17.583-1.814-24.286-4.112a1.429 1.429 0 0 1-.966-1.355v-6.51a6.34 6.34 0 0 1 5.03-6.2.933.933 0 0 0-.384-1.827 8.236 8.236 0 0 0-6.515 8.039v6.511a3.294 3.294 0 0 0 2.02 3.033V85.15c.005 4.26 3.448 7.71 7.695 7.714h39.142a.936.936 0 1 0 0-1.864H90.543V79.644a.932.932 0 0 0-.93-.933.932.932 0 0 0-.931.933V91h-2.079V79.643a.929.929 0 1 0-1.859 0V91H65.638c-3.223-.001-5.835-2.62-5.837-5.852V68.375c6.826 2.123 15.006 3.391 23.816 3.701a4.595 4.595 0 0 0 1.512 1.616v1.578a2.519 2.519 0 0 0 2.516 2.522c1.39 0 2.515-1.13 2.515-2.522v-1.578a4.71 4.71 0 0 0 1.513-1.616c8.81-.298 16.986-1.578 23.815-3.702v16.774C115.487 88.38 112.873 91 109.65 91h-1.152a.932.932 0 0 0-.88.932c0 .495.387.904.88.931h1.152c4.248-.004 7.69-3.456 7.695-7.715V67.753a3.294 3.294 0 0 0 2.02-3.034v-6.51c-.005-4.52-3.658-8.183-8.166-8.187zm-33.787-2.705a4.29 4.29 0 0 1 4.275-4.287h11.535a4.29 4.29 0 0 1 4.276 4.287v1.255h-2.354v-1.255c0-1.063-.86-1.925-1.92-1.925H81.687c-1.06 0-1.92.862-1.92 1.925v1.255h-2.355v-1.255zm2.107 3.106h1.177a.937.937 0 0 0 .93-.933v-2.173a.058.058 0 0 1 .062-.063h11.536a.058.058 0 0 1 .062.063v2.174c.003.514.418.93.93.933h1.178l.194-.413H90.32a1.993 1.993 0 0 0-1.772-1.081h-1.784a2.002 2.002 0 0 0-1.772 1.08h-5.276l-.195.414-.002-.001zm9.314 21.875a.934.934 0 0 0-.533.845v2.124a.658.658 0 1 1-1.314 0v-2.122a.95.95 0 0 0-.533-.845 2.804 2.804 0 0 1-1.585-2.497c0-1.37 1-2.534 2.351-2.738a2.763 2.763 0 0 1 3.052 1.922 2.774 2.774 0 0 1-1.438 3.313v-.002zm28.672-7.58c0 .613-.388 1.158-.966 1.355-6.716 2.299-15.303 3.753-24.286 4.113.012-.124.012-.261.012-.385a4.61 4.61 0 0 0-1.723-3.603v-6.559a.929.929 0 1 0-1.859 0v5.64a4.773 4.773 0 0 0-1.04-.123 4.12 4.12 0 0 0-1.04.124V50.942a.15.15 0 0 1 .148-.15h1.784a.15.15 0 0 1 .15.15v4.883a.929.929 0 1 0 1.859 0l-.001-3.939h20.668c3.483.001 6.307 2.832 6.307 6.325v6.51l-.013-.002z"/>
        </g>
    </g>
</svg>
