<svg xmlns="http://www.w3.org/2000/svg" xmlns:xlink="http://www.w3.org/1999/xlink" width="171" height="171" viewBox="0 0 171 171">
    <defs>
        <ellipse id="b" cx="57.156" cy="64.522" rx="54.724" ry="54.783"/>
        <filter id="a" width="202.3%" height="202.2%" x="-51.2%" y="-36.5%" filterUnits="objectBoundingBox">
            <feOffset dy="16" in="SourceAlpha" result="shadowOffsetOuter1"/>
            <feGaussianBlur in="shadowOffsetOuter1" result="shadowBlurOuter1" stdDeviation="16"/>
            <feColorMatrix in="shadowBlurOuter1" values="0 0 0 0 0.247058824 0 0 0 0 0.447058824 0 0 0 0 0.588235294 0 0 0 0.08 0"/>
        </filter>
    </defs>
    <g fill="none" fill-rule="evenodd">
        <g transform="translate(28 5)">
            <use fill="#000" filter="url(#a)" xlink:href="#b"/>
            <use fill="#FFF" xlink:href="#b"/>
            <ellipse cx="6.992" cy="121.435" fill="#21AF9D" fill-opacity=".08" rx="2.736" ry="2.739"/>
            <ellipse cx="111.271" cy="21.304" fill="#21AF9D" fill-opacity=".08" rx="3.04" ry="3.043"/>
            <ellipse cx="11.249" cy="106.826" fill="#5E73A2" fill-opacity=".376" rx="1" ry="1"/>
            <ellipse cx="3.648" cy="5.478" stroke="#5E73A2" rx="3.648" ry="3.652"/>
            <ellipse cx="119.784" cy="1.217" stroke="#0D8F98" rx="1.216" ry="1.217"/>
            <ellipse cx="109.751" cy="133.609" fill="#0D8F98" fill-opacity=".13" rx="6.384" ry="6.391"/>
        </g>
        <g transform="translate(57.693 42.979)">
            <path fill="#00A896" fill-rule="nonzero" d="M10.704 2.234h39.464c3.044 0 5.507 2.309 5.507 5.162v39.57c0 2.853-2.463 5.162-5.507 5.162H10.704c-3.044 0-5.508-2.309-5.508-5.162V7.396c0-2.843 2.474-5.162 5.508-5.162z"/>
            <path fill="#F4F4F4" fill-rule="nonzero" d="M7.572 2.235h38.304a5.193 5.193 0 0 1 3.73 1.461 5.313 5.313 0 0 1 1.615 3.7v39.569a5.313 5.313 0 0 1-1.616 3.7 5.193 5.193 0 0 1-3.73 1.461H7.573a5.193 5.193 0 0 1-3.73-1.46 5.313 5.313 0 0 1-1.615-3.701V7.397c.074-2.915 2.463-5.222 5.345-5.162z"/>
            <path fill="#81E2D7" fill-rule="nonzero" d="M5.145.745h46.711c1.29 0 2.334 1.02 2.334 2.28v6.656H2.227V3.596C2.227 2.02 3.533.745 5.145.745z"/>
            <path fill="#00A896" fill-rule="nonzero" d="M47.73 2.234h-6.16c5.03 0 9.125 2.753 9.125 7.229v35.61c0 4.462-4.079 6.068-9.124 6.068h4.98c6.295 1.411 9.124-3.617 9.124-8.095V8.422c0-4.462-2.916-6.188-7.946-6.188z"/>
            <path fill="#2D6F84" fill-rule="nonzero" stroke="#2D6F84" d="M50.022 0H7.891c-3.53 0-6.406 2.689-6.406 5.992v3.423a.882.882 0 0 0 .912.853.884.884 0 0 0 .912-.853V5.992a4.445 4.445 0 0 1 4.583-4.285H50.01a4.445 4.445 0 0 1 4.582 4.285V45.39a4.445 4.445 0 0 1-4.582 4.286H7.89a4.445 4.445 0 0 1-4.582-4.286V18.673a.882.882 0 0 0-.913-.853.883.883 0 0 0-.911.853V45.39c0 3.313 2.875 5.993 6.406 5.993h42.12c3.541 0 6.406-2.689 6.406-5.993V5.992C56.428 2.69 53.553 0 50.022 0z"/>
            <g transform="translate(19.923 16.962)">
                <rect width="8.543" height="15.993" fill="#81E2D7" fill-rule="nonzero" rx="2"/>
                <rect width="6.825" height="14.256" x=".859" y=".869" stroke="#2D6F84" stroke-width="3" rx=".5"/>
            </g>
            <g transform="rotate(180 9.012 20.937)">
                <rect width="8.543" height="15.993" fill="#81E2D7" fill-rule="nonzero" rx="2"/>
                <rect width="6.825" height="14.256" x=".859" y=".869" stroke="#2D6F84" stroke-width="3" rx=".5"/>
            </g>
            <g transform="rotate(90 -2.704 31.22)">
                <rect width="7.907" height="8.641" fill="#81E2D7" fill-rule="nonzero" rx="2"/>
                <rect width="6.189" height="6.903" x=".859" y=".869" stroke="#2D6F84" stroke-width="3" rx=".5"/>
            </g>
            <g transform="rotate(-90 17.173 7.741)">
                <rect width="7.907" height="8.641" fill="#81E2D7" fill-rule="nonzero" rx="2"/>
                <rect width="6.189" height="6.903" x=".859" y=".869" stroke="#2D6F84" stroke-width="3" rx=".5"/>
            </g>
            <g fill="#2D6F84" fill-rule="nonzero">
                <path d="M39.59 20.225c.732 0 1.435-.28 1.953-.78s.809-1.178.809-1.886c0-.707-.291-1.386-.81-1.886-.517-.5-1.22-.78-1.952-.78-1.524 0-2.76 1.194-2.76 2.666 0 1.473 1.236 2.666 2.76 2.666M40.764 20.406h-2.342c-1.95.003-3.53 1.53-3.532 3.414v2.767l.007.043.198.058c1.552.484 3.171.736 4.802.75 1.439.044 2.87-.216 4.195-.762l.184-.09h.019V23.82c-.002-1.884-1.582-3.41-3.531-3.414"/>
            </g>
            <g fill-rule="nonzero">
                <path fill="#2D6F84" d="M38.725 31.959v6.098h6.086c.397 1.635-.958 4.105-2.827 5.253a6.242 6.242 0 0 1-7.289-.55 6.13 6.13 0 0 1-1.705-7.056c.946-2.296 3.4-3.92 5.735-3.745z"/>
                <path fill="#2D6F84" d="M40.337 30.544c.42.081.841.139 1.247.243 2.71.673 4.766 3.293 4.603 5.914-.103.03-.209.05-.316.059h-5.37c-.28 0-.491-.012-.491-.383.012-1.855 0-3.71.012-5.566.012-.095.035-.189.07-.28.081.01.163.014.245.013zm4.532 4.999c-.42-1.809-2.102-3.444-3.623-3.56v3.56h3.623z"/>
                <path fill="#81E2D7" d="M44.87 35.541h-3.622v-3.56c1.507.118 3.2 1.752 3.623 3.56z"/>
            </g>
            <ellipse cx="1.856" cy="14.521" fill="#2D6F84" fill-rule="nonzero" rx="1.856" ry="1.862"/>
        </g>
    </g>
</svg>
