<svg xmlns="http://www.w3.org/2000/svg" width="1440" height="348" viewBox="0 0 1440 348">
    <g fill="none" fill-rule="evenodd">
        <g fill-rule="nonzero">
            <g transform="translate(0 -3) translate(90) translate(1013 72)">
                <path fill="#FFF" d="M126.79 182.55L117.124 177.105 117.124 152.66 78.467 152.66 78.467 177.103 68.802 182.548 78.467 239.42 117.124 239.42z"/>
                <path fill="#2D6F84" d="M126.79 182.55l.49-.851-9.175-5.203v-23.714c-.025-.258-.11-.506-.247-.726-.195-.186-.465-.276-.734-.242H78.467c-.26.025-.51.108-.733.242-.188.193-.279.46-.246.726v23.714l-9.177 5.203c-.393.211-.594.659-.488 1.09l9.665 56.872c.083.476.491.83.98.851h38.656c.504.019.934-.355.98-.851l9.665-56.873c.076-.428-.118-.86-.491-1.09l-.49.852-.98-.121-9.542 56.025H79.319l-9.418-55.3 9.052-5.202c.317-.166.507-.498.489-.851V153.75h36.57v23.355c.005.347.19.668.489.85l9.665 5.567.61-.968-.978-.121.992.117z"/>
                <path fill="#FFF" d="M74.184 176.377L121.283 176.377 121.283 194.77 74.184 194.77 74.184 176.377"/>
                <path fill="#2D6F84" d="M74.184 177.345h46v16.457H75.162v-17.425c0-.535-.438-.968-.979-.968-.54 0-.979.433-.979.968v18.395c.026.257.109.505.243.726.196.186.467.275.736.242h47.1c.26-.025.511-.108.734-.242.189-.193.279-.46.246-.726V176.38c-.026-.257-.11-.505-.246-.725-.195-.186-.464-.276-.733-.243h-47.1c-.262-.004-.513.097-.697.28-.185.182-.287.43-.283.688.036.52.454.933.98.968v-.002z"/>
                <path fill="#FFF" d="M179.757 210.633c-1.827-9.394-8.742-17.025-17.982-19.846l-38.782-12.706-25.201 37.271-25.2-37.275-38.782 12.705c-9.195 2.892-16.08 10.49-17.984 19.847L1.27 280.813h193.047l-14.56-70.18z"/>
                <path fill="#2D6F84" d="M179.759 210.622l.979-.242c-1.923-9.774-9.109-17.72-18.716-20.693l-.368.968.368-.968-38.782-12.706c-.444-.146-.933 0-1.222.364l-24.345 35.94-24.345-35.94c-.252-.415-.782-.572-1.224-.364l-38.78 12.706.366.968-.366-.968c-9.605 2.978-16.788 10.92-18.715 20.693L.052 280.564c-.099.306-.002.641.245.85.218.242.533.375.86.365h193.047c.327.01.642-.123.86-.364.194-.24.282-.547.246-.851l-14.557-70.184-.98.242-.978.243 14.312 68.852H2.51l14.315-68.852c1.799-9.005 8.407-16.33 17.248-19.119l38.046-12.462 24.71 36.543c.207.272.52.447.861.483.358.017.693-.17.86-.483l24.712-36.543 38.046 12.462c8.893 2.71 15.535 10.072 17.25 19.119l1.2-.243z"/>
                <ellipse cx="97.916" cy="225.385" fill="#00A896" rx="4.771" ry="4.72"/>
                <path fill="#2D6F84" d="M74.184 176.377s-7.708 1.936-10.276 2.42c.488 19.843 5.014 58.446 33.888 36.543l-23.612-38.963z"/>
                <path fill="#2D6F84" d="M74.184 176.377l-.245-.968s-.49.121-1.224.364c-1.101.242-2.936.725-4.649 1.21-1.72.364-3.425.852-4.403.969-.52.104-.884.566-.86 1.09.008 9.362 1.284 18.682 3.792 27.71 1.102 4.202 3.105 8.12 5.873 11.49 1.274 1.435 2.806 2.624 4.517 3.509 1.743.879 3.671 1.336 5.628 1.332 4.403 0 9.663-2.058 15.78-6.777.38-.337.48-.885.246-1.332L75.15 176.009c-.23-.371-.667-.564-1.1-.485l.121.851-.86.485L96.8 215.825l.86-.483-.61-.851c-5.996 4.468-10.757 6.292-14.558 6.292-1.655.013-3.29-.36-4.771-1.09-2.689-1.518-4.86-3.793-6.239-6.534-2.684-5.267-4.422-10.955-5.137-16.81-.87-5.85-1.36-11.75-1.467-17.661H63.9l.12.968c1.347-.243 3.916-.851 6.24-1.451 2.202-.604 4.16-1.09 4.16-1.09l-.246-.725-.86.485.871-.498z"/>
                <path fill="#2D6F84" d="M121.274 176.375s7.708 1.936 10.276 2.42c-.49 19.843-5.016 58.446-33.888 36.542l23.612-38.962z"/>
                <path fill="#2D6F84" d="M121.283 176.375l-.246.968s1.958.483 4.16 1.09c2.204.606 4.772 1.21 6.24 1.45l.122-.967h-.979c-.012 9.155-1.246 18.27-3.67 27.106-1.038 3.912-2.867 7.576-5.378 10.769-1.02 1.275-2.316 2.31-3.792 3.026-1.477.742-3.115 1.116-4.772 1.089-3.794 0-8.564-1.815-14.56-6.292l-.61.851.86.485 23.49-38.964-.861-.605-.245.969.245-.969-.86-.485-23.49 38.965c-.234.447-.133.995.246 1.332 6.118 4.72 11.377 6.777 15.78 6.777 1.959.019 3.891-.439 5.628-1.332 3.062-1.7 5.535-4.272 7.1-7.381 2.77-5.469 4.587-11.36 5.377-17.425.903-5.972 1.435-11.993 1.592-18.03-.013-.51-.362-.952-.86-1.089-1.222-.242-3.793-.85-6.118-1.332-1.102-.242-2.203-.483-2.934-.725-.732-.243-1.224-.364-1.224-.364-.436-.105-.888.093-1.102.483l.86.6zM18.154 191.625c7.585-2.179 14.925-8.833 22.02-12.1-.734 1.701-1.835 7.02-2.937 8.47 7.708-2.904 13.824-8.954 18.595-15.731 12.112-17.063 16.272-38.6 14.803-59.415-.16-4.693-1.155-9.321-2.937-13.673-1.421-3.245-3.552-6.138-6.238-8.471-1.66-1.544-3.675-2.665-5.87-3.267-2.93-.475-5.934.131-8.442 1.703-6.116 3.387-9.91 9.8-12.477 16.335-7.706 19.844-5.75 41.748-8.441 62.803-1.104 8.22-3.06 16.69-8.076 23.346z"/>
                <path fill="#00A896" fill-opacity=".5" d="M97.495 143.3c9.97 0 18.055 4.396 18.055 9.82s-8.082 17.795-18.055 17.795c-9.973 0-18.055-12.371-18.055-17.795 0-5.424 8.082-9.82 18.055-9.82z"/>
                <path fill="#FFF" d="M141.96 88.043V68.197c.02-.648-.02-1.297-.123-1.937-.092-1.385-.296-2.762-.61-4.115-.96-4.29-2.479-8.438-4.518-12.341-2.238-4.135-4.906-8.028-7.96-11.616-.488-.604-1.099-1.21-1.587-1.815-8.564-9.318-19.699-15.974-29.485-15.974-19.575 0-44.286 26.622-44.286 47.798V88.04c-2.581-.02-5.064.977-6.9 2.77-1.837 1.794-2.876 4.237-2.888 6.79v9.922c.012 2.553 1.051 4.996 2.888 6.79 1.836 1.793 4.319 2.79 6.9 2.77 0 21.066 24.713 48.515 44.286 48.515 9.786 0 20.798-6.897 29.485-16.336.488-.604 1.1-1.21 1.587-1.815 3.099-3.642 5.769-7.62 7.96-11.858 2.147-3.899 3.671-8.103 4.517-12.463.246-1.332.49-2.783.611-4.115 0-.726.123-1.332.123-1.936 2.58.02 5.063-.977 6.9-2.771 1.835-1.794 2.874-4.237 2.886-6.79v-9.922c.006-2.557-1.027-5.009-2.868-6.805-1.84-1.796-4.333-2.785-6.918-2.744z"/>
                <path fill="#2D6F84" d="M141.958 88.043h.979V68.197c.02-.688-.021-1.377-.123-2.058-.092-1.425-.297-2.841-.613-4.234-.928-4.395-2.493-8.634-4.649-12.584-2.305-4.226-5.052-8.2-8.196-11.859-.49-.604-1.101-1.21-1.592-1.815-4.198-4.611-9.112-8.532-14.557-11.615-9.52-6.132-21.8-6.132-31.32 0-8.227 4.797-15.252 11.371-20.55 19.23-5.505 7.874-9.052 16.7-9.052 24.928v19.844h.977v-.968c-2.886.01-5.653 1.14-7.706 3.147-2.026 1.984-3.17 4.683-3.182 7.503v9.922c.057 5.903 4.92 10.654 10.888 10.639v-.968h-.977c0 10.89 6.361 23.233 15.048 32.792 4.224 4.686 9.13 8.723 14.557 11.98 9.47 6.292 21.849 6.292 31.32 0 5.426-3.257 10.332-7.294 14.556-11.98.49-.605 1.102-1.211 1.592-1.815 3.176-3.653 5.888-7.676 8.076-11.98 2.136-4.002 3.7-8.278 4.646-12.705.246-1.451.49-2.783.614-4.235 0-.725.122-1.332.122-2.057h-.979v.968c2.887-.01 5.654-1.14 7.708-3.147 2.026-1.984 3.17-4.683 3.182-7.503v-9.922c-.058-5.903-4.921-10.654-10.89-10.639v.968h.123v.968c2.339-.008 4.584.906 6.238 2.541 1.65 1.588 2.578 3.772 2.569 6.05v9.93c-.047 4.773-3.983 8.612-8.81 8.592-.259.026-.51.108-.733.243-.187.193-.276.46-.243.725.02.648-.02 1.296-.122 1.937-.123 1.332-.244 2.661-.49 3.994-.925 4.262-2.445 8.375-4.518 12.222-2.18 4.14-4.805 8.034-7.83 11.615-.496.634-1.027 1.24-1.59 1.815-4.03 4.56-8.782 8.44-14.07 11.49-4.427 2.705-9.48 4.244-14.68 4.47-5.195-.243-10.244-1.78-14.679-4.47-7.984-4.797-14.794-11.285-19.942-18.996-5.26-7.746-8.686-16.457-8.686-24.081-.026-.257-.11-.505-.245-.726-.123-.242-.49-.242-.734-.242-2.339.008-4.584-.906-6.238-2.54-1.65-1.59-2.577-3.773-2.569-6.05v-9.922c.047-4.773 3.983-8.612 8.81-8.592.259-.026.51-.109.733-.243.188-.193.278-.46.245-.725V68.197c0-10.165 5.993-21.902 14.557-31.098 4.067-4.456 8.814-8.253 14.069-11.255 4.434-2.674 9.49-4.174 14.68-4.355 5.187.198 10.239 1.697 14.68 4.355 5.233 3.033 9.975 6.827 14.068 11.255.499.595 1.03 1.163 1.59 1.702 3.05 3.477 5.677 7.295 7.83 11.375 2.038 3.82 3.557 7.888 4.518 12.101.284 1.314.449 2.65.49 3.994 0 .604.123 1.332.123 1.936v19.844c.025.257.108.505.243.726.195.186.465.275.734.242v-.976z"/>
                <path fill="#2D6F84" d="M78.089 69.054c-1.35 5.513-4.232 10.542-8.32 14.52 12.593-3.342 23.884-10.338 32.42-20.086-1.245 5.546-4.194 10.575-8.442 14.399 3.606-1.606 7.047-3.552 10.277-5.81 7.34-5.08 11.868-11.615 16.76-18.392 4.648 17.063 12.233 33.277 30.585 42.23 13.088-26.137 10.277-86.64-47.22-88.334-71.324-2.178-68.878 73.21-63.861 91.603 14.804-4.84 34.746-25.653 37.8-30.13z"/>
                <path fill="#FFF" d="M129.61 54.523c-22.343-6.896-46.28-6.896-68.623 0-5.142-14.641-10.4-29.162-15.904-43.684C77.716.312 112.887.312 145.52 10.84c-5.397 14.522-10.78 29.043-15.91 43.684z"/>
                <path fill="#2D6F84" d="M129.601 54.523l.366-.968c-22.548-6.938-46.695-6.938-69.243 0l.368.968.979-.364c-5.137-14.641-10.4-29.161-15.904-43.684l-.979.364.368.968c32.428-10.485 67.388-10.485 99.816 0l.368-.968-.98-.364c-5.504 14.52-10.755 29.043-15.903 43.684l.734.364.365-.968-.365.968.978.364c5.14-14.641 10.4-29.162 15.904-43.563.123-.27.123-.58 0-.85-.107-.255-.338-.437-.613-.484-16.314-5.252-33.368-7.91-50.525-7.873-17.152.023-34.197 2.68-50.525 7.873-.252.09-.467.26-.611.483-.126.27-.126.581 0 .851 5.505 14.52 10.756 29.043 15.901 43.563.068.25.24.459.475.575.234.115.507.126.75.03 22.155-6.777 45.863-6.777 68.018 0 .505.143 1.037-.12 1.224-.605l-.966-.364z"/>
                <path fill="#00A896" d="M102.445 239.058c-.004 2.605-2.138 4.716-4.772 4.72-2.616-.046-4.725-2.132-4.771-4.72 0-2.606 2.136-4.72 4.771-4.72s4.772 2.114 4.772 4.72zM81.654 37.186c-1.048-1-1.944-2.146-2.66-3.401 2.851 1.453 6.095 1.975 9.265 1.492 3.241-.491 6.229-2.025 8.5-4.364 2.288-2.325 3.736-5.331 4.123-8.553.38-3.15-.257-6.339-1.822-9.108 1.292.665 2.48 1.512 3.527 2.514 5.97 5.721 6.132 15.143.361 21.061-5.784 5.907-15.31 6.067-21.294.36z"/>
            </g>
            <g transform="translate(0 -3) translate(90) translate(0 51.215)">
                <path fill="#FFF" d="M163.637 187.813L158.15 184.283 158.15 160.182 109.38 160.182 109.38 184.283 103.771 187.57 103.771 255.977 109.38 255.977 109.38 266.444 158.15 266.444 158.15 255.977 163.637 255.977 163.637 187.813"/>
                <path fill="#2D6F84" d="M163.636 187.814l.61-.973-4.999-3.161v-23.498c.008-.289-.13-.563-.366-.73-.185-.215-.449-.347-.732-.366h-48.764c-.29-.007-.564.13-.732.366-.216.184-.347.448-.366.73v23.493l-5.121 2.922c-.322.216-.507.586-.488.973v68.406c-.007.289.13.563.366.73.185.215.45.347.732.366h4.512v9.372c-.007.29.13.564.366.731.185.215.449.347.732.366h48.77c.29.007.565-.13.733-.366.215-.184.347-.448.366-.73v-9.373h4.51c.29.007.565-.13.732-.366.216-.184.348-.448.366-.73v-68.162c-.035-.374-.209-.721-.487-.973l-.732.973h-1.097v67.067h-4.512c-.29-.008-.564.13-.732.365-.215.185-.347.448-.366.73v9.374h-46.576v-9.374c.008-.29-.13-.564-.366-.731-.184-.215-.448-.347-.732-.365h-4.512v-66.702l5.121-2.922c.323-.216.507-.586.488-.973v-23.008h46.699v23.008c.035.374.209.721.487.973l5.609 3.53.487-.973"/>
                <path fill="#00A896" d="M249.372 302.353l-11.017-66.8c-2.183-13.584-13.557-24.44-28.447-27.373l-59.437-11.622-25.785 44.208-25.785-44.208-59.438 11.622c-14.888 2.933-26.268 13.789-28.446 27.373L0 302.353h249.372z" opacity=".5"/>
                <path fill="#FFF" d="M259.35 302.344l-11.096-74.857c-2.213-15.188-13.63-27.413-28.652-30.677l-59.866-13.021-25.97 49.54-25.972-49.54-59.866 13.021c-15.02 3.264-26.439 15.486-28.653 30.673L8.18 302.343H259.35z"/>
                <path fill="#2D6F84" d="M259.35 302.351l1.098-.126-11.096-74.857c-2.286-15.624-14.047-28.19-29.506-31.525l-59.867-13.14c-.5-.116-1.012.14-1.22.608l-24.995 47.714-24.994-47.715c-.249-.428-.728-.667-1.22-.608l-59.866 13.02c-15.438 3.374-27.18 15.921-29.506 31.526L7.083 302.23c-.052.306.038.62.244.852.217.24.53.374.854.366H259.35c.324.008.636-.125.853-.366.192-.24.28-.547.245-.852l-1.098.126v-1.096H9.399l10.854-73.644c2.191-14.701 13.254-26.521 27.798-29.7l59.011-12.78 25.606 48.808c.182.373.56.61.976.61.415 0 .793-.237.975-.61l25.604-48.809 59.012 12.781c14.59 3.098 25.691 14.958 27.798 29.7l11.096 74.857 1.22-.127v.005z"/>
                <path fill="#FFF" d="M133.764 20.45c-13.768.162-26.999 5.359-37.187 14.606-10.004 9.008-16.582 21.423-16.582 35.055l1.585 21.3c-.013.513-.36.958-.854 1.097-1.348.307-2.603.933-3.658 1.825-2.02 1.74-3.176 4.275-3.166 6.938v10.59c-.005 2.39.944 4.685 2.637 6.375 1.693 1.69 3.991 2.638 6.386 2.632.291 0 .57.115.777.32.206.206.32.486.32.777 0 9.615 4.389 19.11 10.85 27.264 3.926 4.875 8.476 9.212 13.534 12.903v-1.948c-.008-.29.13-.564.366-.731.185-.215.449-.347.732-.365h48.77c.29-.008.565.129.732.365.216.184.348.448.366.73v1.949c1.463-1.096 2.927-2.312 4.39-3.53 9.75-8.398 17.8-19.961 19.507-31.77.243-1.57.366-3.157.366-4.746-.001-.291.114-.57.32-.777.207-.205.487-.32.778-.32 2.395.006 4.693-.941 6.386-2.631 1.693-1.69 2.642-3.985 2.637-6.376v-10.59c.002-4.177-2.876-7.807-6.95-8.763l.243-1.096-.243 1.096c-.494-.14-.84-.584-.853-1.096l1.707-21.423c0-13.633-6.585-26.043-16.583-35.055-10.26-9.212-23.515-14.4-37.313-14.605"/>
                <path fill="#00A896" fill-opacity=".5" d="M88.457 47.465c23.966 25.734 53.532 27.464 77.651 21.816S150.37 46.418 136.216 42.94c-14.153-3.478-71.73-21.21-47.759 4.525zM107.734 164.026c18.024 22.267 34.497 17.914 46.58 6.887 12.083-11.027-12.973-20.938-21.375-21.665-8.401-.726-43.229-7.483-25.205 14.778z"/>
                <path fill="#FFF" d="M157.052 161.278h-46.575v2.435c2.492 1.682 5.1 3.187 7.803 4.503 5.487 2.678 10.974 4.26 15.484 4.26 5.014-.203 9.923-1.49 14.389-3.773 3.092-1.43 6.068-3.098 8.9-4.99v-2.435"/>
                <path fill="#000" d="M158.15 159.088h-48.77c-.29-.008-.564.13-.732.365-.216.184-.348.448-.366.73v1.949c.732.487 1.463 1.095 2.195 1.581v-2.435h46.575v2.435c.76-.487 1.493-1.015 2.195-1.581v-1.948c.008-.29-.13-.564-.366-.731-.185-.215-.449-.347-.732-.365"/>
                <path fill="#2D6F84" d="M133.764 18.259c-14.3.136-28.053 5.507-38.65 15.093C84.627 42.725 77.8 55.748 77.8 70.111v.126l1.585 20.571c-1.358.495-2.632 1.192-3.78 2.07-2.499 2.124-3.927 5.244-3.902 8.52v10.59c-.011 5.775 4.365 10.618 10.12 11.199.348 6.572 2.182 12.98 5.364 18.744 5.222 9.179 12.428 17.08 21.094 23.127v-2.68c-5.03-3.725-9.575-8.06-13.53-12.906-6.458-8.155-10.851-17.65-10.851-27.265.001-.29-.114-.57-.32-.776-.206-.206-.486-.321-.778-.32-2.395.006-4.693-.942-6.386-2.632-1.693-1.69-2.642-3.985-2.637-6.375v-10.59c-.01-2.664 1.147-5.198 3.166-6.938 1.056-.892 2.31-1.518 3.659-1.826.494-.139.84-.583.853-1.096l-1.585-21.3c0-13.633 6.585-26.043 16.582-35.055 10.2-9.228 23.424-14.422 37.188-14.607 13.769.163 27 5.36 37.188 14.608 9.998 9.008 16.582 21.423 16.582 35.055l-1.707 21.423c.013.512.36.956.853 1.095l.244-1.095-.244 1.095c4.073.956 6.952 4.586 6.95 8.763v10.59c.005 2.391-.944 4.685-2.637 6.376-1.693 1.69-3.991 2.637-6.386 2.632-.291-.001-.571.114-.777.32-.206.206-.32.485-.32.776 0 1.59-.122 3.176-.366 4.747-1.707 11.929-9.75 23.37-19.507 31.77-1.463 1.217-2.927 2.434-4.39 3.529v2.677c4.768-3.355 9.143-7.233 13.044-11.563 6.711-7.546 11.704-16.554 13.043-26.043.243-1.325.365-2.669.366-4.016 5.755-.581 10.131-5.424 10.12-11.198v-10.59c.034-4.828-3.077-9.118-7.682-10.59l1.591-20.583v-.126c0-14.363-6.828-27.265-17.313-36.638-10.442-9.8-24.198-15.315-38.53-15.447"/>
                <path fill="#2D6F84" d="M186.802 32.616S176.434-.126 133.758 0C91.083 0 80.72 32.616 80.72 32.616 73.65 49.17 73.283 71.08 78.038 92.502l6.95-.973c.024-2.585.351-5.16.975-7.669C94.498 72.418 98.52 52.457 98.52 52.457c11.507 2.8 23.277 4.392 35.116 4.747 12.515-.465 24.963-2.051 37.193-4.74 0 0 2.073 19.962 10.608 31.404.624 2.51.951 5.083.975 7.669l6.95.973c4.877-21.426 4.51-43.333-2.56-59.894z"/>
                <path fill="#2D6F84" d="M183.388 121.963c-.616 5.433-1.675 10.806-3.165 16.067-4.166-6.326-7.41-13.21-9.632-20.448l12.803-25.805c.174-.305.172-.679-.005-.981-.177-.303-.502-.489-.854-.487-.35.001-.674.19-.849.494l-12.684 25.556H98.53L85.85 90.8c-.174-.305-.498-.494-.849-.495-.351-.002-.676.184-.853.486-.177.303-.18.677-.005.982l12.803 25.805c-2.144 7.268-5.393 14.164-9.633 20.448-1.627-5.228-2.688-10.614-3.166-16.067-.366 0-.732.127-1.097.127s-.61-.127-.975-.127c1.586 13.51 4.39 19.354 4.512 19.595h.127c7.437 18.744 27.921 32.012 47.186 32.012s39.748-13.268 47.186-32.012h.127c.127-.244 2.926-6.086 4.51-19.595-.365 0-.61.127-.975.127-.447-.092-.903-.133-1.36-.122z"/>
                <path fill="#2D6F84" d="M183.388 121.963l-.487-.126c-.536 5.405-1.597 10.745-3.166 15.945l.488.127.487-.244c-4.21-6.241-7.418-13.1-9.51-20.327l-.488.126.488.244 12.803-25.805-.488-.244.488.244c.135-.222.219-.472.244-.73.013-.545-.266-1.055-.732-1.34-.222-.134-.473-.218-.732-.244-.545-.012-1.056.267-1.34.731l-12.807 25.435H98.893L86.335 90.437c-.284-.465-.795-.744-1.341-.73-.26.024-.51.108-.732.243-.466.284-.745.794-.732 1.339.026.259.11.508.245.73l.487-.243-.487.244 12.802 25.804.488-.244-.488-.126c-2.147 7.207-5.352 14.057-9.51 20.327l.488.244.487-.127c-1.63-5.185-2.692-10.531-3.166-15.945-.037-.3-.307-.516-.609-.487-.366 0-.732.127-1.098.127-.29.01-.579-.033-.853-.127-.173-.016-.345.028-.488.127-.126.126-.126.244-.126.487 1.585 13.633 4.389 19.475 4.512 19.84.126.126.126.244.365.244h.488l-.244-.487-.488.244c7.56 18.988 28.165 32.377 47.674 32.377 19.51 0 40.114-13.389 47.674-32.377l-.488-.244-.244.487h.126c.271.113.584.009.732-.244.127-.365 2.927-6.207 4.511-19.84.017-.173-.028-.345-.127-.487-.126-.127-.244-.127-.487-.127-.366 0-.61.127-.854.127-.366 0-.609-.127-1.098-.127-.244 0-.609.127-.609.487h.243v.487c.366 0 .732.126 1.22.126.366 0 .732-.126.975-.126v-.487l-.488-.126c-1.585 13.51-4.267 19.232-4.389 19.475l.488.244.244-.487h-.126c-.127-.126-.245-.126-.488 0s-.243.126-.366.365c-7.315 18.502-27.677 31.647-46.697 31.647-19.02 0-39.257-13.148-46.698-31.647 0-.121-.122-.243-.366-.365h-.61l.244.487.488-.244c-.127-.127-2.927-5.965-4.39-19.475l-.487.126v.487c.245 0 .61.126.975.126.488 0 .854-.126 1.22-.126v-.487l-.488.127c.569 5.49 1.671 10.912 3.293 16.189.126.244.244.365.487.365.191-.003.37-.093.488-.244 4.234-6.375 7.48-13.35 9.632-20.692v-.365L84.624 91.406l-.126-.244c0-.126.126-.365.244-.365l.244-.126c.127 0 .366.126.366.244l.488-.244-.488.244 12.685 25.57c.127.244.245.244.488.244h70.474c.191-.003.37-.093.488-.243l12.68-25.561-.488-.244.487.244c.127-.127.245-.244.366-.244l.245.126c.126.127.243.244.243.366l-.127.244-12.802 25.804c0 .127-.127.244 0 .366 2.15 7.341 5.398 14.317 9.631 20.692.135.128.305.213.488.244.213-.034.395-.17.487-.365 1.622-5.277 2.725-10.7 3.293-16.19h-.602v-.005zM186.802 32.616S176.434-.126 133.764 0C91.09 0 80.726 32.616 80.726 32.616c-5.73 13.633-7.072 30.308-4.755 47.715 3.658-2.07 5-4.747 11.705-7.425 11.826-4.868 29.632-9.494 46.095-9.494 15.972 0 33.53 3.895 45.6 8.034 6.829 2.312 8.536 4.747 12.559 6.574 1.823-16.674.36-32.496-5.128-45.404zM180.219 226.764s-5.975-38.585-22.069-46.619v4.626c12.437 8.155 17.923 41.75 17.923 41.75l4.146.243zM108.28 188.358v-4.57C76.521 200.07 89.85 284.059 90.43 287.69l.347 1.875 3.826-.585-.348-1.875c-.115-.938-12.98-81.41 14.024-98.746z"/>
                <path fill="#2D6F84" d="M192.53 290.537c-3.7-.374-7.275-1.538-10.485-3.413 11.096-9.25 17.313-25.195 16.583-39.443-.732-13.997-8.414-22.64-20.119-22.64s-19.386 8.642-20.118 22.64c-.732 14.12 5.609 30.187 16.581 39.443-3.21 1.875-6.785 3.039-10.485 3.413-1.107.11-1.921 1.085-1.828 2.191.095 1.062 1.005 1.864 2.072 1.826h.244c4.834-.529 9.472-2.198 13.533-4.869 4.06 2.671 8.7 4.34 13.533 4.869h.245c1.091.036 2.012-.802 2.078-1.89.066-1.088-.748-2.03-1.835-2.127h.001zm-29.994-42.603c.244-5.6 2.439-18.867 16.094-18.867 13.534 0 15.729 13.148 16.093 18.867.732 13.39-5.364 28.725-16.093 36.88-10.612-8.152-16.825-23.368-16.093-36.88h-.001z"/>
                <path fill="#2D6F84" d="M161.686 295.778c-1.182-.017-2.363-.098-3.536-.244-1.65-.168-2.85-1.64-2.682-3.287.168-1.647 1.642-2.846 3.291-2.678 1.944.243 3.91.243 5.853 0 .797-.104 1.601.125 2.224.631.623.507 1.01 1.247 1.069 2.047.176 1.674-1.011 3.185-2.682 3.413-1.176.102-2.357.141-3.537.118zM195.58 295.779c-1.181-.021-2.361-.102-3.535-.244-.82-.07-1.576-.478-2.084-1.125-.509-.647-.725-1.476-.598-2.289.06-.8.446-1.54 1.069-2.046.623-.507 1.427-.735 2.224-.631 1.942.243 3.908.243 5.851 0 1.068-.109 2.112.36 2.74 1.228.627.868.744 2.005.304 2.982-.44.977-1.367 1.646-2.435 1.754-1.153.298-2.345.423-3.535.37z"/>
                <ellipse cx="92.676" cy="282.39" fill="#2D6F84" rx="12.192" ry="12.172"/>
                <path fill="#2D6F84" d="M92.678 270.213c6.734 0 12.192 5.45 12.192 12.171 0 6.722-5.458 12.172-12.191 12.172-6.733 0-12.192-5.448-12.193-12.17.02-6.714 5.466-12.153 12.192-12.173m0-4.138c-6.56 0-12.473 3.944-14.983 9.994s-1.123 13.013 3.515 17.643c4.638 4.63 11.613 6.015 17.673 3.51 6.06-2.507 10.011-8.41 10.01-14.959-.039-8.924-7.276-16.148-16.215-16.188z"/>
                <path fill="#2D6F84" d="M101.332 282.39c0 4.773-3.875 8.642-8.656 8.642-4.781 0-8.657-3.87-8.657-8.642 0-4.773 3.876-8.642 8.657-8.642 2.305-.033 4.526.867 6.157 2.495 1.63 1.628 2.532 3.845 2.5 6.147z"/>
                <path fill="#FFF" d="M101.331 282.39h-1.585c.002 3.37-2.382 6.273-5.693 6.932-3.31.66-6.627-1.108-7.92-4.222-1.294-3.113-.203-6.705 2.604-8.579 2.806-1.873 6.548-1.506 8.936.878 1.342 1.312 2.09 3.115 2.073 4.99h3.165c0-5.713-4.64-10.345-10.363-10.345-5.724 0-10.364 4.632-10.364 10.346s4.64 10.346 10.364 10.346c2.75.002 5.386-1.087 7.33-3.028 1.945-1.94 3.036-4.574 3.033-7.318h-1.58z"/>
            </g>
            <g>
                <path fill="#00A896" d="M120.456 222.807l19.159 52.152 19.524.366 19.281-57.27c-9.084 2.911-18.53 4.552-28.066 4.875-10.701.394-21.4-.839-31.728-3.657.61 1.22 1.22 2.32 1.83 3.534z" transform="translate(0 -3) translate(90) rotate(1 58.267 9648.804)"/>
                <path fill="#FFF" d="M177.077 189.806v19.985s-10.13 4.142-27.335 4.142c-17.207 0-27.334-4.142-27.334-4.142v-19.985h54.669z" transform="translate(0 -3) translate(90) rotate(1 58.267 9648.804)"/>
                <path fill="#00A896" d="M283.508 349.844l-139.4.831h-4.707L0 351.506l11.95-83.067c2.394-16.42 14.586-29.727 30.774-33.588l37.895-9.138 27.883 16.495-11.466 15.902 42.001 34.414V291.1h1.207l-14.362-39.164c4.441 3.331 9.893 5.048 15.448 4.865 5.533.148 10.947-1.613 15.328-4.984l-13.88 39.28h1.087v1.423l41.639-34.888-11.587-15.783 27.76-16.726 38.022 8.782c16.25 3.67 28.627 16.825 31.26 33.227l12.548 82.712z" opacity=".5" transform="translate(0 -3) translate(90) rotate(1 58.267 9648.804)"/>
                <path fill="#FFF" d="M293.492 349.798l-140.943.853h-4.76l-140.943.853 12.081-85.296c2.326-16.756 14.648-30.414 31.117-34.49l38.318-9.383 28.188 16.938-11.593 16.328 42.466 35.336v-1.461h1.221l-14.522-40.202c4.471 3.414 9.99 5.179 15.62 4.995 5.606.147 11.088-1.663 15.497-5.118l-14.036 40.331h1.099v1.462l42.1-35.825-11.712-16.205 28.066-17.182 38.44 9.017c16.532 3.879 29.04 17.382 31.606 34.119l12.69 84.93z" transform="translate(0 -3) translate(90) rotate(1 58.267 9648.804)"/>
                <path fill="#2D6F84" d="M293.492 349.798v-1.219L8.19 350.163l11.836-83.956c2.27-16.26 14.265-29.492 30.263-33.388l37.829-9.26 26.603 15.963-10.86 15.23c-.36.509-.251 1.208.244 1.585l42.467 35.337c.364.345.918.397 1.342.126.447-.18.737-.616.732-1.096v-1.462h-1.22v1.218h1.22c.376-.035.724-.21.977-.488.228-.32.276-.733.127-1.096l-14.522-40.211-1.099.365-.732.975c4.648 3.547 10.378 5.396 16.23 5.236h.244c5.875.178 11.624-1.721 16.23-5.362l-.733-.976-1.097-.365-14.04 40.335c-.14.364-.093.774.127 1.097.217.322.588.507.976.487h1.098v-1.218h-1.22v1.463c-.005.481.285.916.732 1.097.45.234 1.003.133 1.342-.244l42.094-35.827c.495-.377.603-1.076.245-1.584l-10.983-15.11 26.48-16.328 37.95 8.895c16.05 3.762 28.183 16.889 30.632 33.141l13.054 85.175.733-.126 1.22-.244-13.054-85.175c-2.669-17.182-15.495-31.05-32.46-35.093l-38.44-9.007c-.33-.08-.677-.035-.975.126l-28.067 17.182c-.296.205-.512.506-.61.853-.113.345-.018.723.244.975l11.105 15.354-41.123 35.215.732.976h1.22v-1.463c-.015-.666-.552-1.202-1.22-1.218h-1.097v1.218l1.097.365 14.034-40.334c.166-.505-.036-1.058-.488-1.34-.457-.245-1.008-.245-1.465 0-4.213 3.269-9.428 4.99-14.765 4.874h-.244c-6.345 0-11.104-1.828-14.643-4.752-.42-.365-1.045-.365-1.464 0-.458.335-.653.922-.488 1.463l14.522 40.211 1.099-.365v-1.22h-1.22c-.669.018-1.206.554-1.221 1.22v1.463h1.22l.733-.975-41.613-34.607 10.984-15.475c.208-.28.296-.63.244-.975-.086-.352-.304-.657-.61-.853l-28.193-16.946c-.295-.168-.646-.214-.975-.126l-38.319 9.387c-16.974 4.152-29.69 18.203-32.093 35.46L5.017 351.26c-.052.345.036.695.244.975.265.244.616.375.977.366" transform="translate(0 -3) translate(90) rotate(1 58.267 9648.804)"/>
                <path fill="#00A896" d="M150.963 289.36h1.1v.73l-2.076 1.95-.243.244-.245-.244-2.074-1.95v-.73h1.22l-14.522-40.208c4.472 3.414 9.99 5.18 15.62 4.996 5.606.147 11.088-1.664 15.498-5.118l-14.278 40.33z" transform="translate(0 -3) translate(90) rotate(1 58.267 9648.804)"/>
                <path fill="#2D6F84" d="M150.962 289.36v1.219h1.099v-1.22h-1.099l-.127.244-1.708 1.585-.243.243.854.853.854-.853-.245-.243-1.708-1.585v-.244h-1.22v1.22h1.22c.375-.035.723-.21.976-.488.228-.32.275-.734.127-1.097l-14.521-40.21-1.098.365-.732.975c4.648 3.548 10.378 5.398 16.23 5.24h.245c5.875.178 11.624-1.722 16.23-5.363l-.731-.975-1.1-.365-14.034 40.33c-.142.365-.094.775.126 1.097.217.322.588.507.976.488v-1.22l1.1.366 14.033-40.333c.166-.506-.036-1.059-.488-1.34-.457-.245-1.007-.245-1.464 0-4.213 3.268-9.427 4.99-14.765 4.873h-.243c-5.295.213-10.49-1.473-14.644-4.753-.42-.365-1.045-.365-1.465 0-.457.335-.653.921-.488 1.462l14.522 40.211 1.098-.365v-1.22h-1.22c-.669.017-1.206.554-1.221 1.22v.731c-.035.329.103.652.366.853l2.075 1.95.244.243c.223.234.532.366.854.366.323 0 .632-.132.855-.366l.244-.243 2.075-1.95c.222-.23.352-.533.366-.853v-.731c-.015-.666-.552-1.203-1.22-1.22h-1.099v1.097l1.099.365-.985-.36z" transform="translate(0 -3) translate(90) rotate(1 58.267 9648.804)"/>
                <path fill="#FFF" d="M61.029 80.374L61.029 81.105 18.685 45.768 30.157 29.441 1.967 12.504 0.38 11.528 33.572 0.683 47.606 39.433 62.248 79.643 61.028 79.643z" transform="translate(0 -3) translate(90) rotate(1 58.267 9648.804) translate(86.271 209.721)"/>
                <path fill="#2D6F84" d="M147.303 290.09h-1.22v.732h1.22l.733-.975-41.612-34.606 10.982-15.476c.208-.28.295-.63.244-.975-.086-.352-.304-.657-.61-.853L88.852 221l-1.708-.974-.61 1.097.366 1.218 32.093-10.48 13.668 37.649 14.522 40.21 1.098-.365v-1.209h-1.22c-.668.017-1.205.553-1.22 1.218v.732h2.684v-.732h-1.22v1.22h1.22c.375-.036.723-.21.976-.488.227-.32.275-.734.126-1.097l-14.521-40.21-14.033-38.871c-.11-.31-.34-.562-.639-.7-.298-.137-.64-.149-.948-.032L86.173 220.03c-.454.126-.79.509-.854.974-.06.492.18.971.61 1.22l1.708.973 27.079 16.203-10.86 15.232c-.36.507-.251 1.207.244 1.584l42.467 35.337c.365.345.919.397 1.342.126.447-.181.737-.616.732-1.097v-.731l-1.342.244.004-.004z" transform="translate(0 -3) translate(90) rotate(1 58.267 9648.804)"/>
                <path fill="#FFF" d="M149.742 292.897L147.302 290.825 147.302 289.359 148.522 289.359 149.498 292.04z" transform="translate(0 -3) translate(90) rotate(1 58.267 9648.804)"/>
                <path fill="#FFF" d="M59.601 11.892L31.534 29.074 43.37 45.281 1.27 81.105 1.27 79.642 0.051 79.642 14.206 39.309 27.751 0.316 61.187 10.796z" transform="translate(0 -3) translate(90) rotate(1 58.267 9648.804) translate(150.909 209.721)"/>
                <path fill="#2D6F84" d="M210.512 221.61l-.61-1.097-28.066 17.182c-.297.205-.513.506-.611.853-.112.344-.017.722.245.974l11.104 15.353-41.246 35.093.732.976h1.22v-1.463c-.016-.666-.553-1.202-1.22-1.218h-1.098v1.218l1.098.366 14.033-40.333 13.181-37.902 32.338 10.114.366-1.22-.61-1.096-1.708.975.854 1.218.611 1.097 1.709-.976c.387-.285.614-.739.61-1.219-.02-.484-.376-.89-.855-.975l-33.438-10.468c-.29-.117-.617-.104-.897.036-.28.14-.486.393-.566.695l-13.546 38.99-14.03 40.333c-.142.364-.094.774.126 1.096.217.322.588.507.976.488h1.1v-1.22h-1.221v1.464c-.005.48.285.915.732 1.096.45.234 1.003.134 1.342-.244l42.1-35.824c.495-.378.602-1.077.244-1.584l-10.982-15.11 26.838-16.572-.855-1.097z" transform="translate(0 -3) translate(90) rotate(1 58.267 9648.804)"/>
                <path fill="#FFF" d="M152.184 290.821L149.743 292.897 150.109 292.044 150.109 292.044 150.963 289.363 152.184 289.363 152.184 290.825z" transform="translate(0 -3) translate(90) rotate(1 58.267 9648.804)"/>
                <path fill="#000" d="M152.184 290.822l-.733-.975-2.318 2.072.733.974 1.099.366.243-.852-1.098-.365.855.852c.15-.138.275-.304.366-.487l.61-1.828h.244v-1.218h-1.22v1.463h1.22l-.732-.976.732.976h1.22v-1.462c-.015-.666-.552-1.203-1.22-1.22h-1.097c-.515.014-.96.36-1.1.854l-.975 2.68 1.099.366-.855-.853c-.126.126-.243.365-.366.487l-.243.853c-.146.541.046 1.117.488 1.463.45.333 1.078.279 1.465-.126l2.318-2.072c.28-.253.453-.6.488-.975l-1.223.003z" transform="translate(0 -3) translate(90) rotate(1 58.267 9648.804)"/>
                <path fill="#FFF" d="M69.698 315.918L126.32 315.919 126.32 321.767 69.699 321.766z" transform="translate(0 -3) translate(90) rotate(1 58.267 9648.804) rotate(-.344 98.01 318.842)"/>
                <path fill="#2D6F84" d="M126.435 321.65v-1.219l-55.4.365v-3.411l54.181-.244v4.63l1.22-.126h1.221v-5.85c-.015-.665-.553-1.201-1.22-1.217l-56.621.365c-.674.002-1.22.546-1.22 1.218v5.848c.015.666.552 1.202 1.22 1.22l56.62-.366c.675-.001 1.22-.546 1.221-1.218l-1.222.005z" transform="translate(0 -3) translate(90) rotate(1 58.267 9648.804)"/>
                <path fill="#FFF" d="M173.425 315.43L230.047 315.431 230.047 321.279 173.425 321.278z" transform="translate(0 -3) translate(90) rotate(1 58.267 9648.804) rotate(-.344 201.736 318.355)"/>
                <path fill="#2D6F84" d="M173.538 321.406v1.22l56.621-.366c.668-.016 1.205-.552 1.22-1.218v-5.849c0-.672-.546-1.217-1.22-1.22l-56.62.366c-.675.002-1.22.546-1.221 1.218v5.848c.016.666.552 1.202 1.22 1.22v-1.22h1.22v-4.63l54.182-.244v3.411l-55.4.365v1.097l-.002.002zM152.549 350.651L147.668 350.651 147.302 290.821 147.302 289.359 152.183 289.359 152.183 290.821z" transform="translate(0 -3) translate(90) rotate(1 58.267 9648.804)"/>
                <path fill="#2D6F84" d="M152.55 350.651v-1.22h-3.538l-.367-58.61v-1.462h-1.22v1.218h4.759v-1.218h-1.22v1.463l.366 59.83h2.44l-.364-59.83v-1.461c-.016-.666-.553-1.202-1.22-1.22h-4.76c-.668.017-1.205.554-1.22 1.22v1.463l.366 59.83c0 .672.546 1.217 1.22 1.219h4.76c.668-.016 1.205-.553 1.22-1.22l-1.222-.002z" transform="translate(0 -3) translate(90) rotate(1 58.267 9648.804)"/>
                <path fill="#FFF" d="M211.849 295.939L208.798 290.821 203.428 293.867 203.428 287.775 197.327 287.775 197.327 293.99 191.957 290.821 189.03 296.06 194.398 299.229 189.03 302.275 192.08 307.514 197.449 304.346 197.449 310.56 203.55 310.56 203.423 304.346 208.793 307.392 211.844 302.152 206.474 299.106z" transform="translate(0 -3) translate(90) rotate(1 58.267 9648.804)"/>
                <path fill="#2D6F84" d="M211.854 295.94l1.098-.61-3.051-5.24c-.184-.264-.438-.475-.733-.608-.33-.08-.677-.034-.975.126l-3.539 2.071v-4.021c0-.672-.546-1.217-1.22-1.22h-6.107c-.668.017-1.205.554-1.22 1.22v4.021l-3.539-2.07c-.29-.168-.636-.211-.958-.12-.323.093-.593.312-.75.607l-3.051 5.24c-.168.289-.21.634-.118.955.091.321.31.592.606.75l3.539 2.072-3.539 2.072c-.567.367-.775 1.095-.488 1.705l3.05 5.24c.185.265.438.475.733.608.33.08.678.035.976-.126l3.539-2.072v4.025c0 .672.546 1.217 1.22 1.22h6.101c.668-.017 1.206-.554 1.22-1.22v-4.021l3.54 2.072c.295.168.646.214.975.126.367-.126.611-.244.733-.609l3.05-5.239c.169-.29.212-.634.12-.956-.092-.322-.311-.592-.607-.75l-3.539-2.071 3.539-2.072c.266-.185.477-.438.61-.732.074-.33.03-.675-.126-.975l-1.098.609-.61-1.097-5.368 3.169c-.38.236-.61.65-.61 1.096 0 .446.23.86.61 1.097l4.271 2.437-1.831 3.168-4.272-2.437c-.37-.243-.85-.243-1.22 0-.381.235-.612.65-.61 1.097v4.997h-3.661v-4.997c.002-.446-.229-.862-.61-1.097-.37-.243-.85-.243-1.22 0l-4.271 2.56-1.83-3.169 4.27-2.56c.38-.235.611-.65.611-1.096 0-.446-.23-.86-.61-1.096l-4.271-2.437 1.83-3.169 4.27 2.437c.37.244.851.244 1.221 0 .381-.234.612-.65.61-1.097v-4.995h3.661v4.995c-.002.447.229.863.61 1.097.37.244.85.244 1.22 0l4.272-2.558 2.44 4.142 1.098-.487-.61-1.097.62 1.09z" transform="translate(0 -3) translate(90) rotate(1 58.267 9648.804)"/>
                <g fill="#2D6F84" stroke="#FFF">
                    <path d="M115.347 56.441c.738.015 1.473.096 2.197.244-.855-10.218-5.004-46.102-25.138-56.199v5.23c15.864 10.34 19.645 41.359 20.501 50.97.806-.148 1.622-.23 2.44-.245h0zM37.616 5.23V0C.031 18.976 15.768 116.777 16.506 121.158l.366 2.19 4.515-.73-.366-2.19C20.898 119.33 5.767 25.544 37.616 5.23z" transform="translate(0 -3) translate(90) rotate(1 58.267 9648.804) translate(84.67 205.049)"/>
                    <path d="M131.09 128.575c-4.135-.461-8.127-1.788-11.714-3.892 12.447-10.34 19.524-28.343 18.67-44.156-.854-15.692-9.518-25.423-22.575-25.423-13.056 0-21.722 9.728-22.576 25.423-.854 15.813 6.223 33.816 18.67 44.156-3.587 2.104-7.578 3.43-11.714 3.892-1.279.139-2.205 1.28-2.075 2.555.105 1.19 1.12 2.096 2.318 2.069h.245c5.408-.603 10.594-2.48 15.131-5.475 4.546 2.977 9.728 4.851 15.131 5.475h.245c1.242.007 2.271-.96 2.336-2.196.066-1.236-.855-2.305-2.091-2.428h0zM97.41 80.77c.367-6.325 2.808-21.044 18.061-21.044s17.694 14.719 18.06 21.044c.855 15.084-6.1 32.114-18.06 41.358-11.959-9.245-18.914-26.274-18.06-41.358z" transform="translate(0 -3) translate(90) rotate(1 58.267 9648.804) translate(84.67 205.049)"/>
                    <path d="M96.434 134.415c-1.342 0-2.685-.127-4.027-.244-.906-.096-1.737-.548-2.31-1.255-.572-.708-.838-1.613-.74-2.516.245-1.857 1.91-3.195 3.783-3.041 2.147.243 4.316.243 6.464 0 1.887-.202 3.58 1.16 3.782 3.041.202 1.881-1.164 3.57-3.051 3.77-1.218.122-2.558.245-3.901.245zM18.824 105.583c5.528 0 10.511 3.32 12.627 8.41 2.115 5.092.946 10.952-2.963 14.848-3.909 3.897-9.788 5.062-14.895 2.954-5.107-2.11-8.437-7.077-8.437-12.588-.006-3.615 1.432-7.084 3.996-9.64 2.565-2.556 6.045-3.99 9.672-3.984m0-4.5c-10.11 0-18.303 8.17-18.303 18.247 0 10.076 8.196 18.244 18.304 18.244 10.109 0 18.304-8.169 18.304-18.245-.03-10.065-8.209-18.217-18.305-18.246z" transform="translate(0 -3) translate(90) rotate(1 58.267 9648.804) translate(84.67 205.049)"/>
                </g>
                <path fill="#2D6F84" d="M177.077 199.777h-1.22v19.984h-.577l1.309-1.097c-.488.244-10.373 4.022-26.846 4.022-6.688.07-13.362-.624-19.89-2.07-2.319-.489-4.027-.976-5.248-1.341-.61-.244-1.097-.365-1.342-.488-.127 0-.245-.126-.366-.126h-.127l-.488 1.096h1.22v-18.76h53.57v-2.438h-54.786c-.668.017-1.205.553-1.22 1.22l-.956 15.568c0 .488 2.299 6.126 2.788 6.249.127 0 9.274 3.528 26.724 3.528 17.451 0 26.109-4.142 26.235-4.265.488-.244 2.319-5.685 2.319-6.168v-14.908c-.016-.666-.553-1.202-1.22-1.219v1.22l.12-.007z" transform="translate(0 -3) translate(90) rotate(1 58.267 9648.804)"/>
                <path fill="#00A896" fill-opacity=".5" d="M149.157 188.835c13.392 0 24.25 3.664 24.25 8.174s-10.858 14.82-24.25 14.82c-13.391 0-24.25-10.305-24.25-14.82 0-4.515 10.858-8.174 24.25-8.174z" transform="translate(0 -3) translate(90) rotate(1 58.267 9648.804)"/>
                <path fill="#FFF" d="M202.337 133.877c0 7.432-4.637 18.52-11.105 23.395-2.836 2.044-6.538 2.46-9.759 1.096-5.491-2.315-17.572-4.386-32.698-4.386-15.01 0-27.213 2.072-32.7 4.386-3.22 1.364-6.923.948-9.758-1.096-6.59-4.874-11.105-15.963-11.105-23.395 0 0-9.03-32.779-2.197-56.783 2.563-9.14 11.715-15.11 21.233-16.207 33.558 21.811 67.481 23.396 87.983 10.845 1.12 1.649 1.983 3.457 2.562 5.362 6.574 24.127-2.456 56.783-2.456 56.783z" transform="translate(0 -3) translate(90) rotate(1 58.267 9648.804)"/>
                <path fill="#00A896" fill-opacity=".5" d="M113.353 62.064c30.33 30.477 63.1 27.184 88.742 14.878 25.642-12.305-20.827-28.136-36.932-30.17-16.105-2.034-82.138-15.185-51.81 15.292z" transform="translate(0 -3) translate(90) rotate(1 58.267 9648.804)"/>
                <path fill="#2D6F84" d="M220.763 29.693c-.292-1.569-1.393-2.868-2.896-3.418-1.502-.55-3.185-.27-4.426.737-9.03 6.696-14.277-1.461-35.267-15.84-30.142-20.593-56.504-9.506-69.312 7.433-45.76 19.13-32.215 92.12-27.213 108.198 1.1 3.537 5.98 9.14 5.98 9.14 1.83 3.537-5.004 70.43 61.014 70.43 66.017 0 59.187-67.018 61.015-70.43 0 0 4.88-5.484 5.98-9.14 3.421-10.845 9.03-40.455-1.343-66.653 5.492-8.037 8.054-18.394 6.468-30.457zm-18.427 104.185c0 7.432-4.637 18.521-11.105 23.395-2.836 2.044-6.538 2.46-9.759 1.097-5.492-2.316-17.572-4.387-32.699-4.387-15.01 0-27.212 2.072-32.699 4.387-3.22 1.363-6.923.947-9.759-1.097-6.59-4.874-11.104-15.963-11.104-23.395 0 0-9.03-32.779-2.197-56.783 2.563-9.14 11.715-15.11 21.233-16.206 33.558 21.81 67.482 23.395 87.982 10.844 1.12 1.65 1.984 3.457 2.563 5.362 6.574 24.126-2.456 56.783-2.456 56.783z" transform="translate(0 -3) translate(90) rotate(1 58.267 9648.804)"/>
                <path fill="#FFF" d="M134.733 166.532h29.898c.439-.008.837.256 1 .662.162.407.056.87-.268 1.166-2.196 1.95-6.717 4.753-15.619 4.753-8.902 0-13.545-2.802-15.62-4.753-.314-.277-.433-.716-.3-1.114.132-.398.49-.679.909-.714z" transform="translate(0 -3) translate(90) rotate(1 58.267 9648.804)"/>
                <path fill="#2D6F84" d="M134.732 166.532v.61h29.898c.135-.016.27.03.366.126l.127.365-.127.244c-2.075 1.828-6.464 4.509-15.254 4.63-8.786 0-13.181-2.802-15.254-4.63l-.126-.244.126-.365c.127-.127.127-.127.367-.127v-1.218c-.453.01-.887.183-1.22.488-.263.313-.432.693-.489 1.097-.002.453.173.89.488 1.218 2.197 2.072 7.077 4.874 16.108 4.874 9.03 0 13.789-2.802 16.108-4.874.334-.316.512-.76.488-1.218.048-.427-.139-.846-.488-1.097-.301-.353-.758-.535-1.22-.488h-29.898v.61zM213.571 98.05h-12.325c-3.905-2.071-9.397-3.284-16.962-3.284-12.69 0-21.354 2.437-25.748 7.19-2.69-1.504-5.704-2.34-8.787-2.437-3.044.096-6.018.932-8.664 2.437-4.393-4.753-13.054-7.19-25.747-7.19-7.688 0-13.054 1.34-16.961 3.285H85.929v8.895l4.027 1.462c-.376 1.64-.58 3.314-.61 4.995 0 11.09 2.685 25.712 25.992 25.712 20.745 0 26.235-12.795 28.8-25.224.405-1.76.448-3.584.126-5.362 3.48-1.625 7.503-1.625 10.983 0-.26 1.782-.218 3.595.127 5.362 2.563 12.43 8.054 25.224 28.799 25.224 23.307 0 25.993-14.623 25.993-25.712.031-1.685-.174-3.366-.61-4.995l4.027-1.462v-8.895h-.012zm-73.95 14.745c-2.684 13.038-7.81 21.568-24.406 21.568-18.793 0-21.354-10.113-21.354-21.202 0-3.538 0-14.135 21.354-14.135 14.765 0 20.623 3.285 22.813 6.094 1.69 2.178 2.277 5.012 1.593 7.68v-.005zm44.658 21.696c-16.476 0-21.599-8.652-24.405-21.569-.704-2.57-.163-5.32 1.464-7.432 2.318-2.803 8.055-6.092 22.813-6.092 21.356 0 21.356 10.6 21.356 14.134.133 10.723-2.43 20.959-21.228 20.959zM200.017 261.334c.738.014 1.473.096 2.196.244-.854-10.234-5.004-46.182-25.138-56.296v5.239c15.864 10.36 19.645 41.43 20.502 51.055.805-.147 1.621-.228 2.44-.242zM122.286 210.033v-5.24c-37.585 19.01-21.844 116.978-21.111 121.365l.366 2.193 4.516-.731-.366-2.194c-.123-1.095-15.255-95.044 16.595-115.393z" transform="translate(0 -3) translate(90) rotate(1 58.267 9648.804)"/>
                <path fill="#2D6F84" d="M215.76 333.593c-4.136-.463-8.128-1.792-11.714-3.899 12.447-10.36 19.524-28.392 18.67-44.232-.855-15.72-9.519-25.467-22.575-25.467-13.057 0-21.722 9.748-22.576 25.467-.855 15.84 6.223 33.875 18.67 44.232-3.586 2.107-7.578 3.436-11.715 3.899-1.28.14-2.206 1.283-2.075 2.56.107 1.19 1.12 2.095 2.318 2.072h.245c5.41-.604 10.596-2.484 15.132-5.484 4.544 2.982 9.727 4.86 15.131 5.484h.245c1.244.007 2.274-.961 2.34-2.2.065-1.238-.858-2.309-2.096-2.43v-.002zm-33.68-47.882c.367-6.336 2.808-21.081 18.06-21.081 15.254 0 17.695 14.744 18.061 21.08.854 15.11-6.101 32.17-18.06 41.43-11.96-9.266-18.915-26.326-18.06-41.436v.007z" transform="translate(0 -3) translate(90) rotate(1 58.267 9648.804)"/>
                <path fill="#2D6F84" d="M181.103 339.441c-1.342 0-2.684-.126-4.026-.244-.908-.097-1.74-.55-2.311-1.258-.573-.709-.839-1.615-.74-2.52.244-1.858 1.909-3.199 3.783-3.045 2.148.243 4.316.243 6.464 0 1.865-.159 3.516 1.198 3.715 3.054.199 1.856-1.127 3.53-2.984 3.768-1.218.128-2.557.245-3.9.245zM219.054 339.44c-1.342 0-2.684-.127-3.905-.244-.907-.097-1.738-.55-2.31-1.259-.573-.708-.839-1.614-.74-2.519.234-1.863 1.905-3.209 3.783-3.046 2.148.244 4.316.244 6.464 0 1.861-.114 3.503 1.208 3.781 3.046.166 1.872-1.18 3.54-3.05 3.778-1.337.126-2.68.244-4.023.244zM118.137 324.331c-.015 8.058-6.577 14.581-14.66 14.572-8.085-.01-14.632-6.547-14.627-14.606.004-8.058 6.559-14.588 14.643-14.588 3.889-.003 7.62 1.537 10.367 4.28 2.747 2.744 4.286 6.465 4.277 10.342z" transform="translate(0 -3) translate(90) rotate(1 58.267 9648.804)"/>
                <path fill="#2D6F84" d="M103.493 310.563c5.538-.008 10.535 3.31 12.66 8.409 2.125 5.098.96 10.97-2.954 14.876-3.913 3.907-9.802 5.078-14.92 2.967-5.116-2.11-8.454-7.087-8.454-12.608-.008-3.618 1.429-7.09 3.993-9.65 2.564-2.56 6.046-3.997 9.675-3.994m0-4.51c-7.419-.012-14.114 4.434-16.961 11.263-2.848 6.828-1.287 14.695 3.955 19.928 5.241 5.234 13.13 6.803 19.985 3.976 6.855-2.827 11.326-9.494 11.326-16.889-.023-10.073-8.2-18.238-18.305-18.277z" transform="translate(0 -3) translate(90) rotate(1 58.267 9648.804)"/>
                <path fill="#2D6F84" d="M113.256 324.331c-.011 5.37-4.386 9.715-9.773 9.708-5.387-.008-9.749-4.365-9.745-9.735.004-5.37 4.372-9.721 9.759-9.721 5.388.022 9.748 4.377 9.759 9.748z" transform="translate(0 -3) translate(90) rotate(1 58.267 9648.804)"/>
                <path fill="#FFF" d="M113.256 324.33h-1.83c-.01 3.766-2.688 7.001-6.395 7.728-3.707.727-7.414-1.257-8.854-4.738-1.44-3.482-.215-7.494 2.929-9.583 3.143-2.09 7.33-1.677 10 .987 1.497 1.483 2.333 3.503 2.32 5.606h3.66c-.011-6.38-5.207-11.544-11.606-11.536-6.4.007-11.584 5.183-11.58 11.563.004 6.38 5.193 11.55 11.593 11.55 6.391-.046 11.558-5.206 11.593-11.577h-1.83z" transform="translate(0 -3) translate(90) rotate(1 58.267 9648.804)"/>
            </g>
            <g>
                <path fill="#2D6F84" d="M189.638 224.665l-.381 1.514c-1.143 5.053-2.537 9.725-3.934 14.018-1.94 6.398-4.804 12.482-8.5 18.06-1.469 2.046-3.22 3.874-5.204 5.43-4.133 2.952-9.13 4.461-14.213 4.296H70.612c-5.264.205-10.431-1.447-14.592-4.664-1.825-1.463-3.447-3.163-4.821-5.052-3.724-5.564-6.589-11.652-8.501-18.06-1.395-4.296-2.791-8.969-3.934-14.019-.11-.468-.238-.931-.381-1.39C24.806 165.185 28.867 59.472 59.7 27.518 72.388 14.51 87.996 3.015 114.007 3.015c16.929-.357 33.372 5.64 46.061 16.799 2.943 2.444 5.74 5.06 8.374 7.83 1.015 1.138 2.03 2.275 3.045 3.536 27.915 35.364 31.215 135.899 18.145 193.491" transform="translate(0 -3) translate(90) translate(811 8)"/>
                <path fill="#E6E7E8" d="M88.701 212L149.299 212 154 238 84 238z" transform="translate(0 -3) translate(90) translate(811 8)"/>
                <path fill="#FFF" d="M143.11 215.839L143.11 186 95.772 186 95.772 215.839 84 216.717 95.772 292 143.11 292 155 216.713 143.104 215.835" transform="translate(0 -3) translate(90) translate(811 8)"/>
                <path fill="#2D6F84" d="M141.855 216.23h1.273v-29.975c-.015-.686-.576-1.239-1.273-1.255H94.157c-.698.016-1.26.569-1.276 1.255v28.722l-10.713.882c-.358.038-.683.22-.897.503-.218.288-.31.649-.256 1.003l11.861 75.63c.11.602.655 1.031 1.276 1.004h47.698c.603-.023 1.12-.43 1.274-1.004l11.861-75.63c.054-.354-.038-.715-.256-1.003-.214-.283-.54-.465-.897-.503l-11.86-.882-.129 1.255-.127 1.255 10.585.752-11.606 73.246H95.17l-11.605-73.246 10.585-.752c.658-.057 1.16-.605 1.148-1.255v-28.724h45.153v28.721c-.012.65.49 1.199 1.148 1.255l.256-1.255z" transform="translate(0 -3) translate(90) translate(811 8)"/>
                <path fill="#FFF" d="M182.65 344.873c1.262-34.035.758-114.119-30.784-125.873l-1.893 6.958c-3.154 9.11-11.354 9.868-30.657 9.868-21.825 0-30.15-4.807-32.675-13.03l-1.01-3.67C54.218 231.02 54.848 310.972 56.741 345h125.908" transform="translate(0 -3) translate(90) translate(811 8)"/>
                <path fill="#000" d="M181.362 344.592h1.26c.252-5.327.378-11.8.378-18.903 0-19.409-1.133-43.77-5.532-64.697-1.84-9.678-5.062-19.037-9.564-27.784-4.28-7.74-9.69-13.448-16.738-16.112-.324-.128-.683-.128-1.007 0-.379.127-.505.509-.63.76l-1.888 6.98 1.259.38-1.133-.38c-.584 1.84-1.627 3.498-3.03 4.816-2.643 2.06-5.848 3.256-9.185 3.426-5.682.64-11.4.895-17.114.761-10.824 0-18.122-1.27-23.03-3.3-2.116-.81-4.012-2.114-5.532-3.805-1.319-1.46-2.307-3.192-2.894-5.076l-1.26.382 1.26-.382-1.007-3.679c-.102-.327-.328-.6-.629-.76-.323-.128-.683-.128-1.007 0-6.77 2.932-12.328 8.134-15.73 14.724-6.042 10.403-9.69 24.866-11.83 40.217-1.962 15.312-2.887 30.742-2.769 46.18 0 10.15.378 19.285.755 26.518.056.655.607 1.154 1.259 1.142h125.469c.695-.001 1.258-.569 1.26-1.27l-1.384-.127v-1.27H55.9v1.27l1.26-.127c-.486-8.788-.737-17.588-.755-26.39 0-19.157 1.133-41.614 5.41-60.516 1.774-8.582 4.74-16.868 8.81-24.614 3.901-6.597 8.557-11.418 14.472-13.576l-.504-1.142-1.26.382 1.007 3.679c.657 2.227 1.82 4.269 3.397 5.963 3.006 3.006 6.806 5.076 10.947 5.963 6.395 1.482 12.947 2.164 19.507 2.03 9.69 0 16.612-.127 21.644-1.521 2.339-.55 4.503-1.685 6.293-3.3 1.71-1.658 3.003-3.702 3.775-5.963v-.127l1.888-6.979-1.26-.381-.502 1.142c6.294 2.412 11.326 7.612 15.353 14.972 6.041 11.039 9.816 26.642 11.95 43.135 1.93 15.995 2.855 32.098 2.768 48.21 0 7.106-.126 13.449-.376 18.779l1.635.381.004-.01z" transform="translate(0 -3) translate(90) translate(811 8)"/>
                <path fill="#00A896" d="M119.5 266c-2.485 0-4.5 2.015-4.5 4.5s2.015 4.5 4.5 4.5 4.5-2.015 4.5-4.5c.02-1.2-.447-2.356-1.295-3.205-.849-.848-2.006-1.315-3.205-1.294M119.496 313.017c-2.483 0-4.496 2.011-4.496 4.492.042 2.462 2.03 4.449 4.496 4.491 2.487 0 4.504-2.015 4.504-4.5s-2.017-4.5-4.504-4.5" transform="translate(0 -3) translate(90) translate(811 8)"/>
                <path fill="#00A896" d="M41.622 23.371L26.537 39.42 0.641 8.333 16.731 0.244 22.89 5.931z" transform="translate(0 -3) translate(90) translate(811 8) translate(77 213)"/>
                <path fill="#2D6F84" d="M118.507 236.55l-.874-.897-14.025 15.159L79.9 221.895l13.779-7.007 5.336 5.096 18.494 17.58.993-1.019-.873-.896.873.896.873-.896-18.496-17.58-5.958-5.732c-.38-.327-.9-.424-1.367-.256l-15.887 8.154c-.37.136-.617.493-.62.896-.114.36-.017.756.249 1.02l25.57 31.338c.244.243.544.42.873.51.367.01.723-.127.993-.383l14.894-16.177c.227-.242.36-.56.373-.896.01-.34-.126-.669-.373-.896l-1.12.902z" transform="translate(0 -3) translate(90) translate(811 8)"/>
                <path fill="#00A896" d="M143.509 214L118 236.433 133.589 252 160 221.844z" transform="translate(0 -3) translate(90) translate(811 8)"/>
                <path fill="#2D6F84" d="M143.824 213.277l-.873-.895-24.575 23.282c-.24.232-.376.556-.376.894 0 .339.136.663.376.895l14.893 16.157c.27.255.626.392.993.383.37.05.726-.158.873-.508l25.569-31.298c.266-.262.363-.658.249-1.018-.1-.363-.32-.68-.622-.895l-15.887-8.143c-.459-.245-1.021-.14-1.366.255l.744.895-.495 1.145 14.52 7.383-23.58 28.87-13.157-14.12 23.583-22.392-.873-.895-.496 1.145.5-1.14z" transform="translate(0 -3) translate(90) translate(811 8)"/>
                <path fill="#FFF" d="M88.347 217l-46.985 15.575c-10.957 3.683-19.128 12.892-21.46 24.184L2 344h96c-1.27-16.207-9.653-127-9.653-127z" transform="translate(0 -3) translate(90) translate(811 8)"/>
                <path fill="#2D6F84" d="M87.142 218.481l-.377-1.133-46.702 15.485c-11.323 3.773-19.784 13.262-22.217 24.92L.048 344.49c-.116.356-.018.747.253 1.007.262.288.622.467 1.01.503h95.421c.338.01.662-.129.888-.38.253-.273.39-.634.38-1.006-.63-8.058-3.03-39.657-5.176-69.24-1.137-14.73-2.147-29.082-3.03-39.657-.377-5.286-.757-9.694-1.01-12.715-.253-3.022-.377-4.784-.377-4.784-.036-.387-.217-.747-.506-1.007-.335-.227-.76-.274-1.136-.127l.377 1.386-1.26.126s8.329 110.154 9.592 126.268l1.263-.126v-1.26H2.955l17.419-85.228c2.227-10.8 10.075-19.587 20.574-23.038l46.702-15.484-.506-1.26-1.26.126 1.258-.113z" transform="translate(0 -3) translate(90) translate(811 8)"/>
                <path fill="#00A896" fill-opacity=".5" d="M155.852 219l47.962 15.452c11.059 3.515 19.408 12.658 21.908 23.993L244 345h-98c1.296-16.08 9.852-126 9.852-126z" transform="translate(0 -3) translate(90) translate(811 8)"/>
                <path fill="#FFF" d="M150.65 217l46.985 15.574c10.957 3.684 19.128 12.892 21.461 24.185L237 344h-96c1.27-16.209 9.65-127 9.65-127z" transform="translate(0 -3) translate(90) translate(811 8)"/>
                <path fill="#2D6F84" d="M152.858 218.22l-.38 1.136 46.703 15.515c10.451 3.53 18.269 12.3 20.572 23.083l17.418 85.394h-93.779v1.262l1.26.127c1.264-16.146 9.593-126.515 9.593-126.515h-1.39l-.379 1.136.38-1.136-1.263-.126s-.126 1.774-.38 4.793c-1.64 21.318-8.076 107.594-9.213 121.721-.01.373.127.735.38 1.01.24.23.555.365.888.379h95.421c.402.02.785-.172 1.01-.506.27-.26.369-.652.253-1.01l-17.798-86.908c-2.393-11.701-10.867-21.229-22.214-24.975l-46.702-15.515c-.377-.148-.802-.1-1.137.126-.333.225-.524.608-.504 1.01h1.261z" transform="translate(0 -3) translate(90) translate(811 8)"/>
                <path fill="#2D6F84" d="M152.858 218.22l-.38 1.136 46.703 15.515c10.451 3.53 18.269 12.3 20.572 23.083l17.418 85.394h-93.779v1.262l1.26.127c1.264-16.146 9.593-126.515 9.593-126.515h-1.39l-.379 1.136.38-1.136-1.263-.126s-.126 1.774-.38 4.793c-1.64 21.318-8.076 107.594-9.213 121.721-.01.373.127.735.38 1.01.24.23.555.365.888.379h95.421c.402.02.785-.172 1.01-.506.27-.26.369-.652.253-1.01l-17.798-86.908c-2.393-11.701-10.867-21.229-22.214-24.975l-46.702-15.515c-.377-.148-.802-.1-1.137.126-.333.225-.524.608-.504 1.01h1.261z" transform="translate(0 -3) translate(90) translate(811 8)"/>
                <path fill="#FFF" d="M13.391 44.109L3.934 56.637 26.858 133.197 28.544 133.197 21.679 0.196 0.438 10.826 1.349 34.364z" transform="translate(0 -3) translate(90) translate(811 8) translate(68 212)"/>
                <path fill="#2D6F84" d="M81.798 256.622l-1.013-.75-9.11 12.391c-.203.34-.292.734-.254 1.127l22.4 75.728c.167.546.688.909 1.264.88h1.647c.338.01.664-.127.89-.376.23-.238.365-.551.378-.88L91.293 213.19c-.033-.416-.268-.79-.632-1.002-.384-.25-.882-.25-1.266 0L68.64 222.702c-.434.202-.69.656-.632 1.127l.759 23.283c-.05.372.156.731.505.88l11.77 9.513.758-.88-1.012-.751 1.012.75.759-1.001-11.262-9.262-.759-21.904 18.223-9.262 6.58 128.299h-.254v1.252l1.266-.376-22.272-75.226 8.732-11.886c.366-.568.259-1.316-.254-1.76l-.761 1.124z" transform="translate(0 -3) translate(90) translate(811 8)"/>
                <path fill="#FFF" d="M2.513 133.197L25.731 56.635 16.283 44.107 28.488 34.362 29.275 10.824 7.752 0.193 0.808 133.197z" transform="translate(0 -3) translate(90) translate(811 8) translate(142 212)"/>
                <path fill="#2D6F84" d="M144.912 344.617l1.266.377 22.405-75.752c.102-.394.008-.813-.253-1.127l-8.48-11.394 10.884-8.765c.261-.23.44-.54.507-.88l.759-23.29c.002-.46-.238-.886-.632-1.127l-20.76-10.518c-.401-.188-.866-.188-1.267 0-.386.187-.632.576-.632 1.002l-6.708 131.6c-.011.334.127.656.378.88.24.229.557.363.89.377h1.645c.553-.043 1.038-.38 1.267-.88l-1.267-.503v-1.252h-.254l6.582-128.338 18.227 9.265-.761 21.912-11.265 9.264c-.531.435-.641 1.198-.254 1.762l8.735 11.889-22.279 75.124 1.267.377v-.003z" transform="translate(0 -3) translate(90) translate(811 8)"/>
                <path fill="#00A896" fill-opacity=".5" d="M119.5 177c11.874 0 21.5 4.775 21.5 10.669 0 5.893-9.636 19.331-21.5 19.331S98 193.56 98 187.669c0-5.892 9.626-10.669 21.5-10.669z" transform="translate(0 -3) translate(90) translate(811 8)"/>
                <path fill="#FFF" d="M172.93 104.331v-24.42C172.93 53.856 142.537 21 118.504 21s-54.43 32.855-54.43 58.912v24.419c-3.19-.028-6.259 1.205-8.526 3.427-2.267 2.222-3.545 5.248-3.548 8.406v12.21c.052 6.56 5.447 11.848 12.075 11.833C64.075 166.264 94.467 200 118.5 200c24.033 0 54.425-33.736 54.425-59.793 3.19.028 6.26-1.205 8.527-3.427 2.267-2.222 3.545-5.248 3.548-8.406v-12.21c-.052-6.559-5.444-11.845-12.07-11.833z" transform="translate(0 -3) translate(90) translate(811 8)"/>
                <path fill="#2D6F84" d="M172.924 105.402h1.258V80.999c0-13.46-7.668-28.312-18.346-40-5.118-5.68-11.099-10.52-17.722-14.339-11.62-7.547-26.59-7.547-38.21 0-9.99 5.929-18.537 14.006-25.023 23.647-6.662 9.686-10.941 20.63-10.941 30.692v24.403h1.258v-1.259c-3.47.02-6.798 1.37-9.301 3.774-2.463 2.423-3.864 5.725-3.897 9.181v12.2c-.017 3.467 1.392 6.788 3.897 9.182 2.47 2.453 5.82 3.812 9.3 3.774v-1.259H63.94c.185 7.252 1.944 14.376 5.154 20.88 5.14 10.705 12.512 20.184 21.619 27.798 8.925 7.421 18.98 12.327 28.291 12.327 6.775-.27 13.362-2.308 19.106-5.912 10.004-6.122 18.543-14.366 25.014-24.151 6.661-9.938 10.936-20.88 10.936-31.07h-1.258v1.258c3.47-.02 6.798-1.37 9.301-3.773 2.463-2.424 3.864-5.725 3.897-9.182v-12.196c.017-3.466-1.392-6.787-3.897-9.181-2.47-2.453-5.82-3.812-9.3-3.774v1.385h.125v1.259c2.844-.057 5.58 1.084 7.542 3.145 1.986 1.96 3.117 4.629 3.143 7.42v12.201c.03 2.804-1.108 5.494-3.143 7.421-2.009 1.991-4.715 3.12-7.542 3.145-.687.017-1.241.57-1.257 1.259-.177 6.861-1.85 13.6-4.903 19.747-4.964 10.391-12.13 19.577-20.997 26.918-8.673 7.171-18.226 11.825-26.647 11.825-6.33-.254-12.483-2.16-17.848-5.53-9.695-5.934-17.975-13.92-24.258-23.397-6.41-9.56-10.558-20.251-10.558-29.559-.017-.687-.569-1.24-1.256-1.258-2.844.057-5.581-1.084-7.543-3.146-1.987-1.96-3.117-4.628-3.143-7.42v-12.219c-.031-2.803 1.108-5.493 3.143-7.42 2.009-1.992 4.715-3.12 7.543-3.146.687-.017 1.24-.57 1.256-1.258V80.999c0-12.453 7.294-27.045 17.722-38.239 4.935-5.484 10.704-10.154 17.094-13.837 10.808-7.212 24.89-7.212 35.698 0 9.65 5.78 17.926 13.591 24.258 22.892 6.41 9.434 10.558 20 10.558 29.307v24.406c.016.688.57 1.242 1.258 1.258v-1.384h-.124z" transform="translate(0 -3) translate(90) translate(811 8)"/>
                <path fill="#2D6F84" stroke="#FFF" stroke-width=".8" d="M167 260.765c-.126-1.883-2.295-43.177-25-53.765v4.824c18.495 11.059 20.41 48.706 20.41 49.059l.127 2.117 4.463-.234v-2.001z" transform="translate(0 -3) translate(90) translate(811 8)"/>
                <path fill="#2D6F84" d="M181.446 99.041h-8.281c-4.768-3.19-13.299-3.318-21.2-3.19-13.175 0-21.956 2.679-26.222 7.784-1.88-.893-3.952-1.289-6.023-1.15-2.071-.152-4.146.244-6.022 1.15-4.265-5.105-13.047-7.785-26.222-7.785-7.776 0-16.433 0-21.2 3.191h-8.28v9.061l3.515 2.042c.125 14.164 6.898 30.5 25.844 30.5 15.557 0 25.218-8.55 28.73-25.523.243-1.175.37-2.372.377-3.572.563-1.23 1.804-1.987 3.135-1.914 1.632 0 3.011.897 3.137 1.914.007 1.2.134 2.397.377 3.572 3.512 16.973 13.172 25.522 28.73 25.522 18.943 0 25.718-16.333 25.844-30.499l3.514-2.042v-9.06h.247zm-69.253 15.185c-3.011 14.93-11.03 22.214-24.589 22.214-20.576 0-21.578-22.075-21.578-26.543 0-6.763 14.929-7.405 21.578-7.405 14.929-.004 25.97 5.482 24.59 11.736v-.002zm39.895 22.214c-13.548 0-21.578-7.274-24.59-22.214-1.378-6.38 9.661-11.74 24.59-11.74 6.775 0 21.58.637 21.58 7.405 0 4.465-1.004 26.54-21.58 26.54v.01z" transform="translate(0 -3) translate(90) translate(811 8)"/>
                <path fill="#2D6F84" d="M63.295 191.911C46.208 135.448 34.182 100.394 43.55 62.335c18.1-73.99 109.492-78.373 118.731-31.922 2.026 9.892 22.152 19.655 11.646 68.356-.76-.25-24.304-27.668-30.38-41.94-80.252-.253-53.417 117.554-80.252 135.082z" transform="translate(0 -3) translate(90) translate(811 8)"/>
                <path fill="#2D6F84" stroke="#FFF" stroke-width=".8" d="M179.438 329.544c-3.924-.476-7.715-1.775-11.142-3.819 11.755-10.181 18.488-28.001 17.631-43.657C185.066 266.539 176.99 257 164.5 257s-20.57 9.673-21.426 25.068c-.862 15.656 5.877 33.476 17.633 43.657-3.428 2.044-7.22 3.343-11.144 3.819-1.18.115-2.052 1.192-1.96 2.42.143 1.156 1.084 2.025 2.205 2.036h.244c5.122-.625 10.03-2.5 14.323-5.472 4.294 2.972 9.203 4.847 14.327 5.472h.245c1.121-.01 2.063-.88 2.205-2.037.141-.564.03-1.165-.303-1.634-.332-.47-.85-.758-1.411-.785h0zm-31.957-47.226c.368-6.238 2.693-20.875 17.009-20.875 14.315 0 16.774 14.637 17.008 20.875.734 14.893-5.755 31.82-17.008 40.858-11.252-9.16-17.743-25.963-17.007-40.853l-.002-.005z" transform="translate(0 -3) translate(90) translate(811 8)"/>
                <path fill="#2D6F84" d="M167 260.765c-.126-1.883-2.295-43.177-25-53.765v4.824c18.495 11.059 20.41 48.706 20.41 49.059l.127 2.117 4.463-.234v-2.001z" transform="translate(0 -3) translate(90) translate(811 8)"/>
                <path fill="#2D6F84" stroke="#FFF" stroke-width=".8" d="M96 212.142V207c-37.61 18.433-21.843 113.73-21.066 117.868l.387 2.132 4.522-.752-.388-2.132c-.128-.88-15.25-92.289 16.545-111.974h0z" transform="translate(0 -3) translate(90) translate(811 8)"/>
                <path fill="#2D6F84" d="M96 212.142V207c-37.61 18.433-21.843 113.73-21.066 117.868l.387 2.132 4.522-.752-.388-2.132c-.128-.88-15.25-92.289 16.545-111.974zM179.438 329.544c-3.924-.476-7.715-1.775-11.142-3.819 11.755-10.181 18.488-28.001 17.631-43.657C185.066 266.539 176.99 257 164.5 257s-20.57 9.673-21.426 25.068c-.862 15.656 5.877 33.476 17.633 43.657-3.428 2.044-7.22 3.343-11.144 3.819-1.18.115-2.052 1.192-1.96 2.42.143 1.156 1.084 2.025 2.205 2.036h.244c5.122-.625 10.03-2.5 14.323-5.472 4.294 2.972 9.203 4.847 14.327 5.472h.245c1.121-.01 2.063-.88 2.205-2.037.141-.564.03-1.165-.303-1.634-.332-.47-.85-.758-1.411-.785zm-31.957-47.226c.368-6.238 2.693-20.875 17.009-20.875 14.315 0 16.774 14.637 17.008 20.875.734 14.893-5.755 31.82-17.008 40.858-11.252-9.16-17.743-25.963-17.007-40.853l-.002-.005z" transform="translate(0 -3) translate(90) translate(811 8)"/>
                <path fill="#2D6F84" d="M147.09 334.988c-1.3 0-2.726-.127-4.025-.254-1.87-.208-3.227-1.839-3.05-3.668.178-1.828 1.823-3.182 3.7-3.044 2.156.253 4.335.253 6.49 0 .916-.103 1.836.163 2.546.737.71.574 1.15 1.405 1.218 2.302.126.898-.14 1.806-.731 2.504-.592.698-1.457 1.122-2.384 1.169-1.242.215-2.504.3-3.765.254zM183.028 334.986c-1.286 0-2.572-.127-3.856-.254-1.236-.09-2.327-.83-2.851-1.936-.524-1.107-.4-2.406.325-3.396.725-.99 1.936-1.517 3.168-1.378 2.134.254 4.292.254 6.426 0 .907-.099 1.816.168 2.519.741.703.573 1.14 1.402 1.211 2.298.124.897-.14 1.804-.725 2.502-.587.697-1.442 1.121-2.36 1.17-1.273.218-2.566.303-3.857.253zM93 321c0 7.18-5.82 13-13 13s-13-5.82-13-13 5.82-13 13-13c3.453-.016 6.769 1.348 9.21 3.79 2.442 2.441 3.806 5.757 3.79 9.21z" transform="translate(0 -3) translate(90) translate(811 8)"/>
                <path fill="#2D6F84" d="M79.502 307.219c7.266 0 13.155 5.721 13.155 12.779 0 7.057-5.89 12.779-13.155 12.779s-13.155-5.722-13.155-12.78c-.016-3.393 1.365-6.653 3.836-9.053 2.47-2.4 5.826-3.741 9.32-3.725m0-4.219c-7.079 0-13.46 4.14-16.17 10.493-2.71 6.353-1.212 13.665 3.793 18.527 5.005 4.863 12.533 6.317 19.072 3.685 6.54-2.632 10.803-8.831 10.802-15.707.005-4.51-1.837-8.836-5.12-12.025-3.282-3.189-7.735-4.978-12.378-4.973z" transform="translate(0 -3) translate(90) translate(811 8)"/>
                <path fill="#2D6F84" d="M89 320.5c0 5.247-4.253 9.5-9.5 9.5s-9.5-4.253-9.5-9.5 4.253-9.5 9.5-9.5c2.52-.001 4.937 1 6.719 2.781C88 315.563 89 317.981 89 320.5z" transform="translate(0 -3) translate(90) translate(811 8)"/>
                <path fill="#FFF" d="M90.397 320h-2.604c-.023 3.254-2.434 6.04-5.761 6.66-3.328.618-6.648-1.103-7.935-4.114-1.286-3.01-.182-6.474 2.64-8.277 2.82-1.803 6.576-1.445 8.972.856 1.34 1.296 2.09 3.05 2.084 4.875H93c0-4.853-3.045-9.229-7.716-11.086-4.671-1.858-10.048-.83-13.623 2.601-3.574 3.432-4.644 8.593-2.71 13.077 1.936 4.484 6.493 7.408 11.55 7.408 6.902-.002 12.496-5.374 12.499-12h-2.603z" transform="translate(0 -3) translate(90) translate(811 8)"/>
            </g>
        </g>
    </g>
</svg>
