<svg xmlns="http://www.w3.org/2000/svg" xmlns:xlink="http://www.w3.org/1999/xlink" width="1440" height="547" viewBox="0 0 1440 547">
    <defs>
        <linearGradient id="b" x1="59.053%" x2="-86.54%" y1="50%" y2="50%">
            <stop offset="0%" stop-color="#2D6F84"/>
            <stop offset="100%" stop-color="#4B65AC"/>
        </linearGradient>
        <path id="a" d="M0 0h1440v547H0z"/>
    </defs>
    <g fill="none" fill-rule="evenodd">
        <mask id="c" fill="#fff">
            <use xlink:href="#a"/>
        </mask>
        <use fill="url(#b)" xlink:href="#a"/>
        <g fill="#FFF" mask="url(#c)" opacity=".07">
            <g transform="translate(18 369)">
                <circle cx="3" cy="3" r="3"/>
                <circle cx="3" cy="3" r="3"/>
                <circle cx="3" cy="34" r="3"/>
                <circle cx="3" cy="65" r="3"/>
                <circle cx="3" cy="96" r="3"/>
                <circle cx="3" cy="127" r="3"/>
                <circle cx="3" cy="158" r="3"/>
            </g>
            <g transform="translate(49 369)">
                <circle cx="3" cy="3" r="3"/>
                <circle cx="3" cy="3" r="3"/>
                <circle cx="3" cy="34" r="3"/>
                <circle cx="3" cy="65" r="3"/>
                <circle cx="3" cy="96" r="3"/>
                <circle cx="3" cy="127" r="3"/>
                <circle cx="3" cy="158" r="3"/>
            </g>
            <g transform="translate(80 369)">
                <circle cx="3" cy="3" r="3"/>
                <circle cx="3" cy="3" r="3"/>
                <circle cx="3" cy="34" r="3"/>
                <circle cx="3" cy="65" r="3"/>
                <circle cx="3" cy="96" r="3"/>
                <circle cx="3" cy="127" r="3"/>
                <circle cx="3" cy="158" r="3"/>
            </g>
            <g transform="translate(111 369)">
                <circle cx="3" cy="3" r="3"/>
                <circle cx="3" cy="3" r="3"/>
                <circle cx="3" cy="34" r="3"/>
                <circle cx="3" cy="65" r="3"/>
                <circle cx="3" cy="96" r="3"/>
                <circle cx="3" cy="127" r="3"/>
                <circle cx="3" cy="158" r="3"/>
            </g>
            <g transform="translate(142 369)">
                <circle cx="3" cy="3" r="3"/>
                <circle cx="3" cy="3" r="3"/>
                <circle cx="3" cy="34" r="3"/>
                <circle cx="3" cy="65" r="3"/>
                <circle cx="3" cy="96" r="3"/>
                <circle cx="3" cy="127" r="3"/>
                <circle cx="3" cy="158" r="3"/>
            </g>
            <g transform="translate(173 369)">
                <circle cx="3" cy="3" r="3"/>
                <circle cx="3" cy="3" r="3"/>
                <circle cx="3" cy="34" r="3"/>
                <circle cx="3" cy="65" r="3"/>
                <circle cx="3" cy="96" r="3"/>
                <circle cx="3" cy="127" r="3"/>
                <circle cx="3" cy="158" r="3"/>
            </g>
            <g transform="translate(204 369)">
                <circle cx="3" cy="3" r="3"/>
                <circle cx="3" cy="3" r="3"/>
                <circle cx="3" cy="34" r="3"/>
                <circle cx="3" cy="65" r="3"/>
                <circle cx="3" cy="96" r="3"/>
                <circle cx="3" cy="127" r="3"/>
                <circle cx="3" cy="158" r="3"/>
            </g>
            <g transform="translate(235 369)">
                <circle cx="3" cy="3" r="3"/>
                <circle cx="3" cy="3" r="3"/>
                <circle cx="3" cy="34" r="3"/>
                <circle cx="3" cy="65" r="3"/>
                <circle cx="3" cy="96" r="3"/>
                <circle cx="3" cy="127" r="3"/>
                <circle cx="3" cy="158" r="3"/>
            </g>
            <g transform="translate(266 369)">
                <circle cx="3" cy="3" r="3"/>
                <circle cx="3" cy="3" r="3"/>
                <circle cx="3" cy="34" r="3"/>
                <circle cx="3" cy="65" r="3"/>
                <circle cx="3" cy="96" r="3"/>
                <circle cx="3" cy="127" r="3"/>
                <circle cx="3" cy="158" r="3"/>
            </g>
            <g transform="translate(297 369)">
                <circle cx="3" cy="3" r="3"/>
                <circle cx="3" cy="3" r="3"/>
                <circle cx="3" cy="34" r="3"/>
                <circle cx="3" cy="65" r="3"/>
                <circle cx="3" cy="96" r="3"/>
                <circle cx="3" cy="127" r="3"/>
                <circle cx="3" cy="158" r="3"/>
            </g>
            <g transform="translate(328 369)">
                <circle cx="3" cy="3" r="3"/>
                <circle cx="3" cy="3" r="3"/>
                <circle cx="3" cy="34" r="3"/>
                <circle cx="3" cy="65" r="3"/>
                <circle cx="3" cy="96" r="3"/>
                <circle cx="3" cy="127" r="3"/>
                <circle cx="3" cy="158" r="3"/>
            </g>
            <g transform="translate(359 369)">
                <circle cx="3" cy="3" r="3"/>
                <circle cx="3" cy="3" r="3"/>
                <circle cx="3" cy="34" r="3"/>
                <circle cx="3" cy="65" r="3"/>
                <circle cx="3" cy="96" r="3"/>
                <circle cx="3" cy="127" r="3"/>
                <circle cx="3" cy="158" r="3"/>
            </g>
        </g>
        <path fill="#FFF" fill-rule="nonzero" d="M222.018-356.83c-89.132 0 252.251-88.862 591.067 126.377 217.532 138.191 337.492 569.198 657.847 676.268 821.414 274.534 0-631.048 0-802.646 0-171.597-1102.8 0-1248.914 0z" mask="url(#c)" opacity=".047" transform="rotate(93 1021.83 32.08)"/>
        <path fill="#FFF" fill-rule="nonzero" d="M233.467-575.29c-89.133 0 252.251-88.86 591.067 126.378 217.532 138.191 337.492 569.199 657.847 676.268 821.414 274.535 0-631.048 0-802.646 0-171.597-1102.8 0-1248.914 0z" mask="url(#c)" opacity=".047" transform="rotate(93 1033.28 -186.379)"/>
        <path fill="#FFF" fill-rule="nonzero" d="M612.125-103.064c-44.176 0 125.022-88.862 292.947 126.377 107.814 138.191 167.265 569.199 326.044 676.268 407.112 274.535 0-631.048 0-802.645 0-171.598-546.568 0-618.99 0z" mask="url(#c)" opacity=".047" transform="rotate(93 1008.53 285.847)"/>
    </g>
</svg>
