<svg xmlns="http://www.w3.org/2000/svg" xmlns:xlink="http://www.w3.org/1999/xlink" width="171" height="171" viewBox="0 0 171 171">
    <defs>
        <ellipse id="b" cx="57.156" cy="64.522" rx="54.724" ry="54.783"/>
        <filter id="a" width="202.3%" height="202.2%" x="-51.2%" y="-36.5%" filterUnits="objectBoundingBox">
            <feOffset dy="16" in="SourceAlpha" result="shadowOffsetOuter1"/>
            <feGaussianBlur in="shadowOffsetOuter1" result="shadowBlurOuter1" stdDeviation="16"/>
            <feColorMatrix in="shadowBlurOuter1" values="0 0 0 0 0.247058824 0 0 0 0 0.447058824 0 0 0 0 0.588235294 0 0 0 0.08 0"/>
        </filter>
    </defs>
    <g fill="none" fill-rule="evenodd">
        <g transform="translate(28 5)">
            <use fill="#000" filter="url(#a)" xlink:href="#b"/>
            <use fill="#FFF" xlink:href="#b"/>
            <ellipse cx="6.992" cy="121.435" fill="#21AF9D" fill-opacity=".08" rx="2.736" ry="2.739"/>
            <ellipse cx="111.271" cy="21.304" fill="#21AF9D" fill-opacity=".08" rx="3.04" ry="3.043"/>
            <ellipse cx="11.249" cy="106.826" fill="#5E73A2" fill-opacity=".376" rx="1" ry="1"/>
            <ellipse cx="3.648" cy="5.478" stroke="#5E73A2" rx="3.648" ry="3.652"/>
            <ellipse cx="119.784" cy="1.217" stroke="#0D8F98" rx="1.216" ry="1.217"/>
            <ellipse cx="109.751" cy="133.609" fill="#0D8F98" fill-opacity=".13" rx="6.384" ry="6.391"/>
        </g>
        <g fill-rule="nonzero">
            <path fill="#F4F4F4" d="M105.175 61.997c0 4.34-1.745 10.3-4.614 15.396-1.72 3.059-5.5 7.006-5.5 10.51h-7.587V45.658c9.773 0 17.701 7.084 17.701 16.338z"/>
            <g fill="#81E2D7">
                <path d="M80.541 91.274h13.896a1.698 1.698 0 0 0 1.695-1.7v-.052a1.57 1.57 0 0 0-.477-1.128 1.562 1.562 0 0 0-1.14-.44H80.542a1.6 1.6 0 0 0-1.694 1.49v.13c-.001.451.177.884.495 1.203.318.319.75.498 1.2.497z"/>
                <path d="M94.644 91.274h-14.31a1.698 1.698 0 0 0-1.695 1.7v.052a1.689 1.689 0 0 0 1.695 1.7l14.31-.001a1.698 1.698 0 0 0 1.695-1.7v-.078a1.705 1.705 0 0 0-1.695-1.673z"/>
            </g>
            <path fill="#00A896" d="M88.908 53.37l.365 1.75a8.714 8.714 0 0 1 1.616.444l1.2-1.359c.878.381 1.709.864 2.476 1.438l-.548 1.7c.417.365.809.758 1.173 1.176l1.695-.549a11.19 11.19 0 0 1 1.434 2.483l-1.355 1.203c.183.52.332 1.053.443 1.594l1.745.366c.13.954.13 1.922 0 2.875l-1.745.366a8.516 8.516 0 0 1-.443 1.595l1.355 1.202c-.38.881-.861 1.715-1.434 2.484l-1.695-.55c-.364.419-.756.812-1.173 1.177l.548 1.7a11.144 11.144 0 0 1-2.477 1.437l-1.199-1.359c-.52.185-1.05.333-1.59.445l-.365 1.75c-.476.06-.954.095-1.434.104V53.266c.472-.005.943.03 1.408.104z"/>
            <path fill="#F4F4F4" d="M87.475 71.852c3.69-.035 6.663-3.044 6.663-6.744 0-3.7-2.973-6.71-6.663-6.745"/>
            <path fill="#2D6F84" d="M86.64 59.174V45.685a.827.827 0 0 1 .834-.836c10.402 0 18.536 7.554 18.536 17.174 0 4.575-1.8 10.64-4.719 15.815a31.259 31.259 0 0 1-1.929 2.928c-1.538 2.195-3.233 4.653-3.415 6.77a2.444 2.444 0 0 1 1.017 2.013 2.602 2.602 0 0 1-.547 1.568c.499.5.78 1.176.783 1.882a2.525 2.525 0 0 1-.736 1.798 2.51 2.51 0 0 1-1.792.738H80.358a2.534 2.534 0 0 1-1.795-.754 2.548 2.548 0 0 1-.734-1.807v-.027c.008-.69.289-1.348.782-1.83a2.59 2.59 0 0 1-.55-1.62c0-.643.256-1.259.712-1.71a2.394 2.394 0 0 1 1.713-.696h6.154V59.174zm11.34 20.624c.704-.991 1.355-1.934 1.851-2.797 2.737-4.862 4.484-10.743 4.484-14.978 0-8.417-6.96-15.083-15.98-15.475v5.907c.232.027.443.027.704.078a.865.865 0 0 1 .73.654l.26 1.228c.212.05.421.11.626.183l.834-.941a.834.834 0 0 1 .964-.209c.937.422 1.828.939 2.66 1.542.293.215.41.6.284.942l-.39 1.177.469.47 1.147-.392a.855.855 0 0 1 .938.288 11.812 11.812 0 0 1 1.538 2.666.893.893 0 0 1-.209.967l-.933.836c.064.206.116.416.156.627l1.304.262c.397.079.682.43.677.836v2.876a.864.864 0 0 1-.683.837l-1.304.261-.15.628.938.836a.84.84 0 0 1 .209.967c-.42.94-.936 1.833-1.538 2.667a.855.855 0 0 1-.939.287l-1.173-.392-.47.471.391 1.177a.86.86 0 0 1-.286.94 11.22 11.22 0 0 1-2.66 1.543.887.887 0 0 1-.964-.209l-.838-.942c-.208.052-.417.13-.626.183l-.26 1.229a.803.803 0 0 1-.73.653l-.704.078v9.359h5.971c.365-2.536 2.112-5.072 3.702-7.32zm-2.92-14.716c-.002 3.866-2.895 7.116-6.726 7.554v2.902l.13-.654a.835.835 0 0 1 .678-.653c.497-.09.985-.222 1.46-.392.093-.03.19-.048.287-.052.24 0 .468.105.625.287l.782.89a9.123 9.123 0 0 0 1.28-.76l-.367-1.122c-.103-.33 0-.69.26-.915a8.29 8.29 0 0 0 1.07-1.071.86.86 0 0 1 .912-.262l1.12.366c.277-.412.53-.84.757-1.283l-.884-.784a.867.867 0 0 1-.233-.914 7.14 7.14 0 0 0 .391-1.464.835.835 0 0 1 .652-.68l1.173-.233V64.35l-1.173-.233a.835.835 0 0 1-.652-.68 9.313 9.313 0 0 0-.39-1.463.867.867 0 0 1 .232-.915l.887-.784a9.159 9.159 0 0 0-.757-1.283l-1.12.366a.874.874 0 0 1-.913-.262 8.291 8.291 0 0 0-1.068-1.071.852.852 0 0 1-.261-.915l.365-1.124c-.412-.278-.839-.53-1.28-.758l-.782.889a.862.862 0 0 1-.912.233 7.09 7.09 0 0 0-1.46-.392.835.835 0 0 1-.677-.653l-.13-.654v2.902c3.83.418 6.73 3.665 6.724 7.53zm-6.726-5.83v11.685a5.899 5.899 0 0 0 5.04-5.842 5.899 5.899 0 0 0-5.04-5.843zM80.33 93.836h14.31a.828.828 0 0 0 .837-.862v-.027a.827.827 0 0 0-.836-.836H80.33a.828.828 0 0 0-.834.863V93a.827.827 0 0 0 .833.836zm.209-5.072a.746.746 0 0 0-.834.706v.078a.828.828 0 0 0 .835.837h13.894a.828.828 0 0 0 .834-.862v-.027a.76.76 0 0 0-.781-.732H80.539zm6.1-19.448v-8.443"/>
            <path fill="#000" d="M85.703 70.624v2.823"/>
            <g>
                <path fill="#81E2D7" d="M63.259 65.174c-2.222 3.566 1.031 6.915 1.031 6.915-.079 5.997 5.29 5.833 5.29 5.833 1.216 5.295 6.822 3.377 6.822 3.377.872 2.158 2.908 3.16 4.707 3.593a2.716 2.716 0 0 0 2.322-.537 2.732 2.732 0 0 0 1.01-2.165V48.373a2.732 2.732 0 0 0-1.01-2.164 2.716 2.716 0 0 0-2.322-.537c-1.798.432-3.835 1.431-4.68 3.616 0 0-5.633-1.944-6.823 3.35 0 0-5.395-.135-5.29 5.833 0 0-3.225 3.35-1.03 6.915"/>
                <g fill="#00A896" opacity=".996">
                    <path d="M63.206 68.263a4.901 4.901 0 0 1-.635-1.644 4.946 4.946 0 0 0 .212 2.52c.108-.307.25-.6.423-.876zM81.11 45.724c-1.799.424-3.836 1.405-4.681 3.553 0 0-5.633-1.909-6.823 3.289 0 0-5.395-.133-5.29 5.727 0 0-2.644 2.678-1.506 5.808a7.38 7.38 0 0 1 1.507-2.546c-.08-5.887 5.289-5.727 5.289-5.727 1.19-5.172 6.823-3.29 6.823-3.29.846-2.147 2.882-3.102 4.68-3.553a2.703 2.703 0 0 1 2.308.516 2.719 2.719 0 0 1 1.024 2.136v-3.262a2.719 2.719 0 0 0-1.024-2.136 2.703 2.703 0 0 0-2.308-.515z"/>
                </g>
                <path fill="#2D6F84" d="M84.996 47.264a3.568 3.568 0 0 0-1.137-1.656 3.297 3.297 0 0 0-2.935-.65c-2.327.57-4.02 1.763-4.919 3.472-1.005-.217-3.015-.488-4.707.489a4.993 4.993 0 0 0-2.301 3.039 6.15 6.15 0 0 0-3.781 1.736 6.468 6.468 0 0 0-1.693 4.586 8.58 8.58 0 0 0-1.269 2.117 5.848 5.848 0 0 0 .106 5.02 5.936 5.936 0 0 0-.106 5.02c.323.761.75 1.474 1.27 2.116a7.123 7.123 0 0 0 .899 3.555.745.745 0 0 0 1.031.245.766.766 0 0 0 .37-.651.781.781 0 0 0-.106-.409 4.951 4.951 0 0 1-.634-2.062 5.313 5.313 0 0 0 3.728-.027.758.758 0 0 0 .503-.733.41.41 0 0 0-.053-.244.733.733 0 0 0-.952-.462c-2.83 1.004-4.152-1.03-4.205-1.112a.727.727 0 0 0-.185-.217 4.75 4.75 0 0 1-.29-4.288h.025A.782.782 0 0 0 64 65.39a.736.736 0 0 0-.344-.758h-.026a4.69 4.69 0 0 1 .265-4.259.816.816 0 0 0 .212-.217c0-.026 1.322-2.116 4.204-1.112a.756.756 0 0 0 .953-.461.81.81 0 0 0 .053-.245.758.758 0 0 0-.503-.732 5.31 5.31 0 0 0-3.729-.028 4.65 4.65 0 0 1 1.19-2.795 4.94 4.94 0 0 1 3.306-1.329.767.767 0 0 0 .74-.597 3.743 3.743 0 0 1 1.717-2.608 4.739 4.739 0 0 1 2.67-.489c.61.244 1.167.603 1.64 1.058a3.908 3.908 0 0 1 1.084 3.909.768.768 0 0 0 .582.895.749.749 0 0 0 .873-.597c.1-.454.153-.918.159-1.383a5.33 5.33 0 0 0-1.693-3.935c-.079-.054-.132-.136-.211-.19.634-1.517 2.036-2.55 4.125-3.067a1.948 1.948 0 0 1 1.666.38c.484.39.766.98.767 1.601V64.55a.742.742 0 1 0 1.481 0v-3.392M85.182 69.382v-1.353a.742.742 0 1 0-1.481 0v14.215a1.927 1.927 0 0 1-.767 1.564 1.983 1.983 0 0 1-1.666.371c-2.116-.504-3.49-1.511-4.126-2.996.08-.053.132-.133.212-.186a5.11 5.11 0 0 0 1.692-3.845 6.262 6.262 0 0 0-.159-1.352.743.743 0 0 0-1.223-.424.745.745 0 0 0-.23.715c.713 3.421-2.222 4.64-2.751 4.827a4.611 4.611 0 0 1-2.671-.477 3.799 3.799 0 0 1-1.719-2.546.763.763 0 0 0-.74-.583 5.896 5.896 0 0 1-2.01-.424.745.745 0 0 0-1.032.781.748.748 0 0 0 .45.598c.657.279 1.352.458 2.063.53a4.898 4.898 0 0 0 2.3 2.97c1.693.955 3.703.69 4.708.477.872 1.644 2.565 2.81 4.892 3.394a3.502 3.502 0 0 0 4.046-2.174"/>
                <path fill="#2D6F84" d="M74.841 59.209a4.813 4.813 0 0 0 2.275 1.113.74.74 0 0 0 .82-.64v-.079a.744.744 0 0 0-.662-.742c-.026 0-3.094-.424-3.094-5.224v-.053a.742.742 0 1 0-1.481 0c0 .577.045 1.153.132 1.724a6.06 6.06 0 0 0-2.724-.266.744.744 0 0 0 .291 1.459 5.043 5.043 0 0 1 2.962.61 5.827 5.827 0 0 0 1.481 2.098zM73.466 77.857a.757.757 0 0 0 .74-.743v-.053c0-4.694 2.962-5.198 3.095-5.224a.743.743 0 0 0 .634-.742v-.08a.74.74 0 0 0-.82-.637 4.533 4.533 0 0 0-2.273 1.113 5.824 5.824 0 0 0-1.508 2.122 5.202 5.202 0 0 1-2.961.61.744.744 0 0 0-.29 1.458 5.396 5.396 0 0 0 2.722-.265c-.087.57-.131 1.147-.132 1.724a.847.847 0 0 0 .793.717zM65.295 65.091a.742.742 0 0 0 .74.743h5.527a5.3 5.3 0 0 0-1.217 3.474c.034.4.366.71.767.713a.757.757 0 0 0 .714-.769c.001-.915.33-1.799.925-2.492a3.437 3.437 0 0 1 2.592-.928h5.526a.742.742 0 0 0 0-1.485h-5.262a.949.949 0 0 0-.29-.054 3.478 3.478 0 0 1-2.592-.928 3.836 3.836 0 0 1-.926-2.492.757.757 0 0 0-.714-.769.707.707 0 0 0-.766.716 5.476 5.476 0 0 0 1.269 3.527h-5.58a.716.716 0 0 0-.713.744z"/>
            </g>
        </g>
        <path stroke="#2D6F84" stroke-dasharray="2" stroke-linecap="round" stroke-linejoin="round" stroke-width="1.5" d="M76.198 43.442c10.05-5.865 22.851-3.607 30.3 5.345a22.853 22.853 0 0 1 2.196 25.974"/>
        <path fill="#2D6F84" fill-rule="nonzero" d="M105.554 73.688l-1.434 6.937 6.725-2.253z"/>
    </g>
</svg>
