<svg xmlns="http://www.w3.org/2000/svg" xmlns:xlink="http://www.w3.org/1999/xlink" width="171" height="171" viewBox="0 0 171 171">
    <defs>
        <ellipse id="b" cx="57.156" cy="64.522" rx="54.724" ry="54.783"/>
        <filter id="a" width="202.3%" height="202.2%" x="-51.2%" y="-36.5%" filterUnits="objectBoundingBox">
            <feOffset dy="16" in="SourceAlpha" result="shadowOffsetOuter1"/>
            <feGaussianBlur in="shadowOffsetOuter1" result="shadowBlurOuter1" stdDeviation="16"/>
            <feColorMatrix in="shadowBlurOuter1" values="0 0 0 0 0.247058824 0 0 0 0 0.447058824 0 0 0 0 0.588235294 0 0 0 0.08 0"/>
        </filter>
    </defs>
    <g fill="none" fill-rule="evenodd">
        <g transform="translate(28 5)">
            <use fill="#000" filter="url(#a)" xlink:href="#b"/>
            <use fill="#FFF" xlink:href="#b"/>
            <ellipse cx="6.992" cy="121.435" fill="#21AF9D" fill-opacity=".08" rx="2.736" ry="2.739"/>
            <ellipse cx="111.271" cy="21.304" fill="#21AF9D" fill-opacity=".08" rx="3.04" ry="3.043"/>
            <ellipse cx="11.249" cy="106.826" fill="#5E73A2" fill-opacity=".376" rx="1" ry="1"/>
            <ellipse cx="3.648" cy="5.478" stroke="#5E73A2" rx="3.648" ry="3.652"/>
            <ellipse cx="119.784" cy="1.217" stroke="#0D8F98" rx="1.216" ry="1.217"/>
            <ellipse cx="109.751" cy="133.609" fill="#0D8F98" fill-opacity=".13" rx="6.384" ry="6.391"/>
        </g>
        <g fill-rule="nonzero">
            <path fill="#F4F4F4" d="M110.41 92.747H61.189a1.367 1.367 0 0 1-1.36-1.365V50.79a4.332 4.332 0 0 1 4.32-4.331h43.304a4.332 4.332 0 0 1 4.32 4.331v40.592a1.363 1.363 0 0 1-1.361 1.365z"/>
            <path fill="#00A896" d="M111.772 50.79v40.592a1.367 1.367 0 0 1-1.361 1.365h-4.13a1.367 1.367 0 0 0 1.36-1.365V50.79a4.325 4.325 0 0 0-4.317-4.331h4.13c1.146 0 2.245.456 3.056 1.268a4.337 4.337 0 0 1 1.264 3.063h-.002z"/>
            <path fill="#81E2D7" d="M111.772 50.79v6.63H59.828v-6.63a4.332 4.332 0 0 1 4.32-4.331h43.304c1.145 0 2.244.456 3.055 1.268a4.338 4.338 0 0 1 1.265 3.063z"/>
            <path fill="#00A896" d="M111.772 50.79v6.63h-4.13v-6.63a4.325 4.325 0 0 0-4.318-4.331h4.13c1.146 0 2.245.456 3.056 1.268a4.337 4.337 0 0 1 1.264 3.063h-.002zM81.463 88.005a2.506 2.506 0 0 1-1.77-.739l-4.376-4.389a2.513 2.513 0 0 1 1.115-4.209 2.497 2.497 0 0 1 2.422.662l2.608 2.615 10.206-10.233c.977-.98 2.56-.98 3.537 0 .977.98.977 2.568 0 3.548L83.231 87.276a2.475 2.475 0 0 1-1.769.728v.001z"/>
            <g fill="#00A896">
                <path d="M69.106 49.916h-1.58c-.67-.001-1.212-.546-1.213-1.217v-4.15c.001-.672.544-1.216 1.214-1.217h1.579c.67 0 1.213.545 1.213 1.217v4.142a1.222 1.222 0 0 1-1.213 1.224zM80.456 49.916H78.88a1.213 1.213 0 0 1-1.216-1.217v-4.15c0-.672.543-1.216 1.213-1.217h1.579c.67 0 1.213.545 1.213 1.217v4.142a1.222 1.222 0 0 1-1.213 1.227v-.003zM91.804 49.916h-1.576c-.67-.001-1.213-.546-1.214-1.217v-4.15c0-.672.544-1.216 1.214-1.217h1.576c.67 0 1.212.545 1.213 1.217v4.142a1.208 1.208 0 0 1-1.213 1.227v-.002zM103.157 49.916h-1.576a1.213 1.213 0 0 1-1.217-1.217v-4.15c.001-.672.544-1.216 1.214-1.217h1.579c.67 0 1.213.545 1.213 1.217v4.142a1.208 1.208 0 0 1-1.213 1.227v-.002z"/>
            </g>
            <path fill="#00A896" d="M116.182 87.3c0 4.231-2.541 8.046-6.44 9.665a10.411 10.411 0 0 1-11.368-2.267 10.482 10.482 0 0 1-2.262-11.4 10.432 10.432 0 0 1 9.638-6.458c5.761 0 10.431 4.683 10.432 10.46z"/>
            <path fill="#D0F4EF" d="M113.257 87.298c0 4.156-3.36 7.525-7.503 7.525-4.144.001-7.504-3.366-7.506-7.522-.001-4.155 3.356-7.525 7.5-7.528 4.144.002 7.503 3.37 7.505 7.525h.004z"/>
            <path fill="#2D6F84" d="M68.581 60.763h-2.96a.852.852 0 1 0 0 1.706h2.96c.47 0 .85-.383.85-.854a.852.852 0 0 0-.85-.852zM74.704 62.468h2.96c.47 0 .85-.382.85-.853a.852.852 0 0 0-.85-.852h-2.96a.852.852 0 1 0 0 1.706zM83.787 62.468h2.96c.469 0 .85-.382.85-.853a.852.852 0 0 0-.85-.852h-2.96a.852.852 0 1 0 0 1.706zM92.87 62.468h2.959c.47 0 .85-.382.85-.853a.852.852 0 0 0-.85-.852h-2.96a.852.852 0 1 0 0 1.706zM104.911 60.763h-2.96a.852.852 0 1 0 0 1.706h2.96a.858.858 0 0 0 .604-1.46.841.841 0 0 0-.604-.246zM68.581 65.049h-2.96c-.469 0-.85.382-.85.853 0 .47.381.853.85.853h2.96c.47 0 .85-.382.85-.853a.852.852 0 0 0-.85-.853zM74.704 66.755h2.96c.47 0 .85-.382.85-.853a.852.852 0 0 0-.85-.853h-2.96c-.47 0-.85.382-.85.853 0 .47.38.853.85.853zM83.787 66.755h2.96c.469 0 .85-.382.85-.853a.852.852 0 0 0-.85-.853h-2.96c-.47 0-.85.382-.85.853 0 .47.38.853.85.853zM92.87 66.755h2.959c.47 0 .85-.382.85-.853a.852.852 0 0 0-.85-.853h-2.96c-.47 0-.85.382-.85.853 0 .47.38.853.85.853zM104.911 65.049h-2.96c-.469 0-.85.382-.85.853 0 .47.381.853.85.853h2.96a.858.858 0 0 0 .604-1.459.841.841 0 0 0-.604-.247zM74.727 83.492l4.377 4.389a3.312 3.312 0 0 0 2.37.977 3.36 3.36 0 0 0 2.37-.977l11.974-12.01a3.367 3.367 0 0 0 .867-3.246 3.356 3.356 0 0 0-2.37-2.376 3.345 3.345 0 0 0-3.237.87l-9.605 9.63-2.007-2.012a3.345 3.345 0 0 0-3.237-.87 3.356 3.356 0 0 0-2.37 2.376c-.31 1.16.02 2.398.867 3.247v.002zm1.202-3.537c.311-.307.73-.479 1.168-.477.436 0 .856.172 1.168.477l2.608 2.615c.333.33.869.33 1.202 0L92.28 72.337a1.648 1.648 0 0 1 2.336 0 1.66 1.66 0 0 1 0 2.342L82.632 86.675c-.31.311-.73.487-1.168.489-.44.001-.86-.175-1.168-.49l-4.38-4.386a1.653 1.653 0 0 1 .012-2.333z"/>
            <g fill="#2D6F84" stroke="#2D6F84" stroke-width=".5">
                <path d="M59.828 83.958a.858.858 0 0 0 .85-.853V58.272h50.243v9.37a.852.852 0 1 0 1.701 0v-16.85a5.19 5.19 0 0 0-5.17-5.186h-2.234v-1.057a2.074 2.074 0 0 0-2.064-2.07h-1.576a2.074 2.074 0 0 0-2.064 2.07v1.057H93.88v-1.057a2.074 2.074 0 0 0-2.066-2.07h-1.576a2.074 2.074 0 0 0-2.064 2.07v1.057h-5.638v-1.057a2.074 2.074 0 0 0-2.06-2.07H78.9a2.074 2.074 0 0 0-2.064 2.07v1.057H71.2v-1.057a2.074 2.074 0 0 0-2.063-2.07H67.53a2.074 2.074 0 0 0-2.064 2.07v1.057h-1.317a5.19 5.19 0 0 0-5.17 5.185v32.317a.854.854 0 0 0 .85.853v-.003zm41.387-39.41a.36.36 0 0 1 .363-.363h1.576a.358.358 0 0 1 .363.364v4.141a.36.36 0 0 1-.363.365h-1.576a.358.358 0 0 1-.363-.365V44.55zm-11.35 0a.36.36 0 0 1 .363-.363h1.576a.358.358 0 0 1 .363.364v4.141a.36.36 0 0 1-.363.365h-1.576a.358.358 0 0 1-.363-.365V44.55zm-11.35 0a.36.36 0 0 1 .363-.363h1.576a.358.358 0 0 1 .363.364v4.141a.36.36 0 0 1-.363.365h-1.577a.358.358 0 0 1-.363-.365V44.55zm-11.35 0a.36.36 0 0 1 .362-.363h1.576a.358.358 0 0 1 .363.364v4.141a.36.36 0 0 1-.363.365H67.53a.358.358 0 0 1-.363-.365l-.002-4.141zm-3.017 2.763h1.315v1.377a2.074 2.074 0 0 0 2.066 2.069h1.576a2.074 2.074 0 0 0 2.063-2.07v-1.376h5.636v1.377a2.074 2.074 0 0 0 2.064 2.07h1.575a2.074 2.074 0 0 0 2.064-2.07V47.31h5.635v1.377a2.074 2.074 0 0 0 2.064 2.07h1.575a2.074 2.074 0 0 0 2.064-2.07V47.31h5.635v1.377a2.074 2.074 0 0 0 2.064 2.07h1.576a2.074 2.074 0 0 0 2.064-2.07V47.31h2.234c.92 0 1.803.367 2.454 1.02a3.485 3.485 0 0 1 1.016 2.46v5.775h-50.21v-5.775c0-.923.365-1.808 1.016-2.46a3.465 3.465 0 0 1 2.454-1.02zM68.604 91.894h-7.416a.508.508 0 0 1-.51-.511v-4.39a.858.858 0 0 0-.85-.852.858.858 0 0 0-.85.853v4.389a2.217 2.217 0 0 0 2.21 2.217h7.416a.858.858 0 0 0 .604-1.459.841.841 0 0 0-.604-.247zM112.622 78.34v-6.799a.852.852 0 1 0-1.7 0v5.717a11.253 11.253 0 0 0-12.916 1.822 11.33 11.33 0 0 0-2.562 12.823H72.482a.852.852 0 1 0 0 1.706h23.903a11.267 11.267 0 0 0 11.338 4.839 11.293 11.293 0 0 0 8.989-8.454 11.328 11.328 0 0 0-4.09-11.656v.003zm-6.871 18.568a9.581 9.581 0 0 1-8.853-5.931 9.627 9.627 0 0 1 2.078-10.471 9.562 9.562 0 0 1 10.442-2.082 9.608 9.608 0 0 1 5.914 8.877c-.005 5.304-4.292 9.602-9.581 9.607z"/>
            </g>
            <path fill="#2D6F84" d="M105.75 78.92c-4.615 0-8.356 3.753-8.356 8.38 0 4.628 3.741 8.38 8.356 8.38 4.616 0 8.357-3.751 8.357-8.38-.008-4.624-3.745-8.371-8.357-8.38zm.76 15.01a.833.833 0 0 0 .09-.376v-1.046a.852.852 0 1 0-1.7 0v1.035c0 .13.031.259.09.375a6.683 6.683 0 0 1-5.851-5.867c.116.06.244.09.374.09h1.032a.852.852 0 1 0 0-1.706l-1.032.001a.827.827 0 0 0-.374.091 6.683 6.683 0 0 1 5.85-5.867.832.832 0 0 0-.09.375v1.036a.848.848 0 1 0 1.701 0v-1.035a.833.833 0 0 0-.09-.375 6.683 6.683 0 0 1 5.85 5.867.827.827 0 0 0-.374-.091h-1.032c-.47 0-.85.382-.85.853 0 .47.38.852.85.852h1.032c.13 0 .258-.031.374-.09a6.683 6.683 0 0 1-5.85 5.878z"/>
            <path fill="#2D6F84" d="M107.621 86.448h-1.02v-.875a.848.848 0 1 0-1.701 0V87.3c.004.47.382.85.85.853h1.871c.47 0 .851-.382.851-.853a.852.852 0 0 0-.85-.853z"/>
        </g>
    </g>
</svg>
