<svg xmlns="http://www.w3.org/2000/svg" xmlns:xlink="http://www.w3.org/1999/xlink" width="172" height="171" viewBox="0 0 172 171">
    <defs>
        <ellipse id="b" cx="57.628" cy="64.522" rx="55.176" ry="54.783"/>
        <filter id="a" width="201.5%" height="202.2%" x="-50.7%" y="-36.5%" filterUnits="objectBoundingBox">
            <feOffset dy="16" in="SourceAlpha" result="shadowOffsetOuter1"/>
            <feGaussianBlur in="shadowOffsetOuter1" result="shadowBlurOuter1" stdDeviation="16"/>
            <feColorMatrix in="shadowBlurOuter1" values="0 0 0 0 0.247058824 0 0 0 0 0.447058824 0 0 0 0 0.588235294 0 0 0 0.08 0"/>
        </filter>
    </defs>
    <g fill="none" fill-rule="evenodd">
        <g transform="translate(28 5)">
            <use fill="#000" filter="url(#a)" xlink:href="#b"/>
            <use fill="#FFF" xlink:href="#b"/>
            <ellipse cx="7.05" cy="121.435" fill="#21AF9D" fill-opacity=".08" rx="2.759" ry="2.739"/>
            <ellipse cx="112.191" cy="21.304" fill="#21AF9D" fill-opacity=".08" rx="3.065" ry="3.043"/>
            <ellipse cx="11.342" cy="106.826" fill="#5E73A2" fill-opacity=".376" rx="1" ry="1"/>
            <ellipse cx="3.678" cy="5.478" stroke="#5E73A2" rx="3.678" ry="3.652"/>
            <ellipse cx="120.774" cy="1.217" stroke="#0D8F98" rx="1.226" ry="1.217"/>
            <ellipse cx="110.658" cy="133.609" fill="#0D8F98" fill-opacity=".13" rx="6.437" ry="6.391"/>
        </g>
        <path fill="#F4F4F4" fill-rule="nonzero" d="M109.612 82.28h-45.06a4.955 4.955 0 0 1-3.5-1.44 4.9 4.9 0 0 1-1.447-3.48V48.935a4.9 4.9 0 0 1 1.447-3.48 4.955 4.955 0 0 1 3.5-1.44h45.071a4.955 4.955 0 0 1 3.5 1.44 4.9 4.9 0 0 1 1.447 3.48V77.36c-.007 2.718-2.225 4.918-4.958 4.918z"/>
        <path fill="#00A896" fill-rule="nonzero" d="M95.88 93.206H78.284l2.2-10.927H93.68z"/>
        <path fill="#81E2D7" fill-rule="nonzero" d="M59.594 73.53v3.83a4.9 4.9 0 0 0 1.447 3.48 4.955 4.955 0 0 0 3.5 1.44h45.071a4.955 4.955 0 0 0 3.5-1.44 4.9 4.9 0 0 0 1.446-3.48v-3.83H59.594z"/>
        <path fill="#00A896" fill-rule="nonzero" d="M114.38 48.338v32.13c-.053.64-.611 1.12-1.256 1.08h-3.807a1.181 1.181 0 0 0 1.255-1.08v-32.13c0-1.9-3.187-3.43-5.384-3.43h5.208c2.207 0 3.986 1.54 3.986 3.43h-.002z"/>
        <path fill="#2D6F84" fill-rule="nonzero" d="M109.613 42.917H64.55c-3.34.002-6.048 2.695-6.051 6.018V77.36c.003 3.322 2.71 6.015 6.051 6.018h14.605l-1.764 8.75h-5.695c-.604 0-1.094.487-1.094 1.088 0 .601.49 1.088 1.094 1.088h30.782c.604 0 1.094-.487 1.094-1.088 0-.6-.49-1.088-1.094-1.088h-5.695l-1.764-8.75h14.604c3.341-.003 6.049-2.696 6.051-6.018V48.935c-.012-3.323-2.72-6.013-6.062-6.018zM64.55 45.104h45.073c2.125.004 3.847 1.717 3.852 3.83v23.51H60.7v-2.188h6.598c.604 0 1.094-.487 1.094-1.088 0-.601-.49-1.089-1.094-1.089H60.7V48.935c.004-2.114 1.726-3.827 3.851-3.83zM94.54 92.118H79.624l1.764-8.75h11.388l1.764 8.75zm18.924-14.758c-.004 2.114-1.726 3.826-3.852 3.83h-45.06c-2.126-.004-3.848-1.716-3.852-3.83V74.63h52.765v2.732l-.001-.001z"/>
        <path fill="#2D6F84" fill-rule="nonzero" d="M87.082 80.093c1.215 0 2.2-.98 2.2-2.188a2.194 2.194 0 0 0-2.2-2.187c-1.215 0-2.2.979-2.2 2.187 0 .58.231 1.137.644 1.548.413.41.972.64 1.556.64z"/>
        <g fill-rule="nonzero">
            <path fill="#81E2D7" d="M106.59 60.586l-8.18-1.88 1.88 8.136 2.206-2.184 2.522 2.5 1.889-1.88-2.522-2.499z"/>
            <path fill="#2D6F84" d="M99.432 67.049c.07.315.31.567.623.656a.907.907 0 0 0 .877-.225l1.572-1.564 1.89 1.88a.892.892 0 0 0 .633.26.923.923 0 0 0 .632-.26l1.89-1.88a.886.886 0 0 0 0-1.25l-1.89-1.878 1.573-1.564a.884.884 0 0 0-.434-1.492l-8.18-1.88a.888.888 0 0 0-.83.235.877.877 0 0 0-.236.826l1.88 8.136zm5.386-5.96l-1.066 1.06a.886.886 0 0 0 0 1.25l1.89 1.88-.634.629-1.889-1.88a.892.892 0 0 0-.633-.26.908.908 0 0 0-.633.26l-1.066 1.061-1.211-5.196 5.242 1.196zM95.32 56.891a.892.892 0 0 0 .632.26.886.886 0 0 0 .633-1.51l-.886-.88a.892.892 0 0 0-1.502.388.88.88 0 0 0 .246.861l.876.881zM93.584 59.812h1.256c.49 0 .886-.394.886-.88a.883.883 0 0 0-.886-.881h-1.256a.883.883 0 0 0-.886.88c0 .487.397.881.886.881zM95.32 60.955l-.886.88a.882.882 0 0 0-.191.966.89.89 0 0 0 .824.545.907.907 0 0 0 .632-.261l.886-.881a.883.883 0 0 0-.402-1.488.895.895 0 0 0-.863.239zM101.293 57.152a.923.923 0 0 0 .633-.261l.886-.88a.88.88 0 0 0-.014-1.237.892.892 0 0 0-1.243-.013l-.885.88a.886.886 0 0 0 0 1.25c.161.17.388.265.623.26zM98.618 56.056a.885.885 0 0 0 .886-.881v-1.259a.883.883 0 0 0-.886-.88.883.883 0 0 0-.886.88v1.25a.882.882 0 0 0 .257.627.892.892 0 0 0 .63.263z"/>
        </g>
        <path fill="#2D6F84" fill-rule="nonzero" d="M69.576 69.577c.026.067.06.13.1.19l.134.166c.05.051.106.096.167.133a.62.62 0 0 0 .19.1l.202.066c.14.03.284.03.424 0a.612.612 0 0 0 .2-.066c.068-.027.131-.06.19-.1l.169-.133a.876.876 0 0 0 .133-.167.615.615 0 0 0 .1-.189l.068-.2c.03-.139.03-.282 0-.421a.771.771 0 0 0-.067-.212 1.014 1.014 0 0 0-.1-.189l-.134-.166a.879.879 0 0 0-.168-.133.623.623 0 0 0-.19-.1l-.201-.067a.913.913 0 0 0-.424 0 .612.612 0 0 0-.202.067c-.066.026-.13.06-.19.1l-.167.133a.876.876 0 0 0-.134.166.615.615 0 0 0-.1.19 4.638 4.638 0 0 0-.067.21c-.03.14-.03.283 0 .422l.067.2z"/>
        <g stroke-linecap="round">
            <path stroke="#2D6F84" stroke-width="3" d="M77.846 52.538h12.568M77.846 60.642h12.568"/>
            <g transform="translate(69.364 49.161)">
                <rect width="5.433" height="5.403" fill="#81E2D7" fill-rule="nonzero" rx="1"/>
                <rect width="3.673" height="3.653" x=".88" y=".875" stroke="#2D6F84" stroke-width="3" rx=".5"/>
            </g>
            <g transform="translate(69.364 57.265)">
                <rect width="5.433" height="5.403" fill="#81E2D7" fill-rule="nonzero" rx="1"/>
                <rect width="3.673" height="3.653" x=".88" y=".875" stroke="#2D6F84" stroke-width="3" rx=".5"/>
            </g>
        </g>
    </g>
</svg>
