<svg xmlns="http://www.w3.org/2000/svg" width="58" height="52">
  <defs/>
  <g fill="#FFF" fill-rule="evenodd">
    <path fill-rule="nonzero" d="M3.276 48.803l-1.875-3.59H.598v4.715h.321V46.07h.054l1.929 3.804h.16l1.93-3.857v3.857h.802V45.16h-.696l-1.822 3.643zm3.643-2.41v3.482h.696v-3.697h-.214l-.482.214zm.643-1.876a.166.166 0 00-.107-.053c-.054 0-.107-.054-.16-.054a.197.197 0 00-.161.054.187.187 0 00-.107.053l-.107.107c0 .054-.054.107-.054.161a.197.197 0 00.054.16c.004.058.05.104.107.108.027.03.065.05.107.054.053 0 .107.054.16.054a.197.197 0 00.161-.054.187.187 0 00.107-.054l.107-.107c0-.054.054-.107.054-.16a.197.197 0 00-.054-.162l-.107-.107zm3.696 1.982a.94.94 0 00-.267-.214.777.777 0 00-.375-.107 1.483 1.483 0 00-.697.16 3.037 3.037 0 00-.696.539v-.645h-.697v3.643h.697v-2.68c.107-.053.16-.16.267-.214.107-.054.161-.107.268-.16.107-.054.16-.108.268-.108.107 0 .16-.053.268-.053a.608.608 0 01.428.16.8.8 0 01.16.538v2.465h.697v-2.627a1.18 1.18 0 00-.054-.429c-.107-.054-.16-.16-.267-.268zm1.768-1.982c0-.053-.054-.053-.107-.053s-.107-.054-.161-.054a.197.197 0 00-.16.054.187.187 0 00-.108.053l-.107.107c0 .054-.054.107-.054.161a.197.197 0 00.054.16c.004.058.05.104.107.108a.17.17 0 00.107.054c.054 0 .107.054.16.054a.197.197 0 00.162-.054.187.187 0 00.107-.054l.107-.107c0-.054.053-.107.053-.16a.197.197 0 00-.053-.162c0-.053-.054-.053-.107-.107zm-.643 1.875v3.483h.696v-3.697h-.16l-.536.214zm3.803 1.768a1.12 1.12 0 00-.321-.214c-.107-.053-.268-.107-.375-.16-.107-.054-.268-.107-.375-.161l-.321-.16c-.107-.054-.161-.161-.215-.215-.054-.107-.107-.16-.107-.268a.197.197 0 01.054-.16c.054-.054.054-.107.16-.161.055-.054.161-.054.215-.107.107 0 .161-.054.268-.054a.905.905 0 01.538.16c.187.133.35.296.482.483l.268-.214a.91.91 0 00-.321-.322 1.121 1.121 0 00-.322-.215.761.761 0 00-.322-.107h-.321a1.483 1.483 0 00-.482.054.863.863 0 00-.375.215 1.42 1.42 0 00-.268.321c-.067.134-.103.28-.107.429.01.148.046.293.107.428.1.245.294.438.538.538.12.064.246.117.375.161.12.063.246.117.374.16l.322.162c.107.053.16.16.215.214.053.107.107.161.107.268a.405.405 0 01-.054.215c-.054.053-.054.107-.161.16a.279.279 0 01-.215.107.483.483 0 01-.267.054.402.402 0 01-.268-.054c-.107 0-.16-.053-.268-.107a.94.94 0 01-.268-.214c-.107-.107-.16-.215-.267-.322l-.375.214a.91.91 0 00.321.322c.094.09.203.162.322.214.098.06.208.096.321.107h.322c.2-.004.4-.04.59-.107.157-.038.303-.111.428-.214a1.42 1.42 0 00.268-.322 1.01 1.01 0 00.107-.428.777.777 0 00-.107-.375c0-.107-.107-.215-.215-.322l-.005-.003zm2.63 1.289a.322.322 0 01-.214.054.197.197 0 01-.161-.054.115.115 0 01-.107-.107.053.053 0 01-.054-.054c0-.054-.054-.107-.054-.16v-2.57h.804v-.322h-.807V45h-.215c-.054.16-.054.374-.107.538a1.076 1.076 0 01-.214.428l-.322.322a1.28 1.28 0 01-.482.107v.16h.643v2.57a.68.68 0 00.054.322c.053.107.053.215.107.268a.74.74 0 00.214.16.68.68 0 00.322.055 1.08 1.08 0 00.589-.161c.15-.097.278-.225.375-.375l-.161-.107a.74.74 0 01-.215.16l.005.002zm2.942-3.11c-.054-.053-.107-.053-.16-.106-.054 0-.161-.054-.215-.054a.402.402 0 00-.268.054c-.107.054-.16.107-.268.16-.107.054-.16.161-.268.268-.107.107-.16.215-.214.268v-.697h-.696v3.643h.696v-2.519a.74.74 0 01.161-.214l.161-.16c.054-.055.107-.108.16-.108a.197.197 0 01.162-.054h.16l.215.107h.215a.761.761 0 00.321-.107.41.41 0 00.107-.267.197.197 0 00-.054-.161c-.107 0-.16-.054-.214-.054v.002zm2.519 2.516l-1.393-2.625h-.858l1.874 3.43-.268.538c-.054.054-.054.16-.107.214-.053.054-.054.161-.107.215l-.16.16c-.054.108-.108.108-.215.108h-.161c-.054 0-.054-.054-.107-.054s-.054-.054-.107-.054h-.16a.197.197 0 00-.162.054.115.115 0 00-.107.107l-.107.104c0 .054-.054.107-.054.16a.197.197 0 00.054.161c.054.054.054.107.107.107.054.054.107.054.16.107.054 0 .161.054.215.054a1.04 1.04 0 00.375-.054c.13-.062.255-.134.375-.214l.322-.321c.131-.134.224-.3.268-.482l1.82-4.233h-.373l-1.125 2.52zm7.125-2.142a2.211 2.211 0 00-.59-.375 1.83 1.83 0 00-1.5 0 1.52 1.52 0 00-.589.429 1.387 1.387 0 00-.375.589c-.11.235-.164.491-.16.75-.004.242.05.48.16.696.093.215.22.414.375.59.161.173.364.302.59.374a1.83 1.83 0 001.5 0c.217-.111.416-.256.589-.428.186-.173.316-.397.375-.643a1.89 1.89 0 00.16-.75 1.483 1.483 0 00-.16-.697c-.093-.2-.22-.381-.375-.538v.003zm-.375 2.14a1.076 1.076 0 01-.214.429 1.42 1.42 0 01-.322.267.993.993 0 01-.375.107.905.905 0 01-.538-.16.992.992 0 01-.374-.429 6.283 6.283 0 01-.268-.59 3.162 3.162 0 01-.107-.75c-.009-.18.01-.362.054-.537.038-.157.111-.304.214-.429.107-.107.161-.214.322-.268a.777.777 0 01.375-.107 1.08 1.08 0 01.589.161.992.992 0 01.375.429c.103.183.176.382.214.59.047.246.065.498.054.75a.622.622 0 010 .537h.001zm4.123-4.285a.761.761 0 00-.321-.107 1.044 1.044 0 00-.429-.054c-.183.01-.365.045-.538.107a.833.833 0 00-.428.321c-.12.122-.211.268-.268.429a1.903 1.903 0 00-.107.538v.428h-.747v.322h.75v3.321h.696v-3.32h.964v-.321h-.964v-.86a.483.483 0 01.054-.267.279.279 0 01.107-.214l.16-.16c.055-.055.108-.055.215-.055.108 0 .161 0 .215.054.054.054.107.054.107.107s.054.107.054.16c0 .055.053.108.053.162.004.057.05.103.107.107.054.053.107.053.215.053h.16a.187.187 0 00.107-.053l.107-.107c0-.054.053-.107.053-.161 0-.107 0-.16-.053-.214a1.17 1.17 0 01-.268-.215v-.001zm5.519 2.787h-2.356v-2.141h-.805v4.714h.805v-2.25h2.357v2.25h.803v-4.714h-.804v2.141zm4.768 1.5c-.107.107-.161.215-.322.268a1.32 1.32 0 01-.375.215 1.18 1.18 0 01-.428.054 1.903 1.903 0 01-.538-.107 2.69 2.69 0 01-.429-.375 1.674 1.674 0 01-.267-.538 2.714 2.714 0 01-.107-.696h2.678c-.01-.2-.046-.399-.107-.59a2.516 2.516 0 00-.322-.482 1.112 1.112 0 00-.538-.322 1.36 1.36 0 00-.643-.107 1.711 1.711 0 00-.75.161c-.221.08-.41.23-.538.429a1.853 1.853 0 00-.375.643 2.082 2.082 0 00-.107.803c-.002.243.056.483.168.699.093.2.22.381.375.538.166.167.367.295.589.375.215.11.454.164.696.16.184-.01.365-.045.538-.107.177-.056.341-.147.482-.267.156-.13.3-.273.429-.429.121-.162.212-.344.268-.538l-.215-.107-.16.322-.002-.002zm-2.356-1.82a1.12 1.12 0 01.215-.321.538.538 0 01.267-.215.68.68 0 01.322-.053.911.911 0 01.375.053c.244.1.438.294.538.538.044.12.062.248.053.375h-1.825a.911.911 0 01.053-.375l.002-.002zm5.784-.587a.863.863 0 00-.375-.215 2.009 2.009 0 00-.589-.053 1.651 1.651 0 00-.538.053l-.482.161a1.42 1.42 0 00-.322.268.761.761 0 00-.107.321.197.197 0 00.054.161c0 .054.054.107.054.161l.107.107c.054 0 .107.054.16.054a.197.197 0 00.161-.054c.054-.054.107-.054.107-.107a.197.197 0 00.054-.16v-.375c0-.054.054-.107.107-.161.053-.054.107-.107.16-.107.055-.054.162-.054.322-.054a.402.402 0 01.268.054c.054.054.16.054.215.16.065.082.12.172.16.268.048.138.066.284.054.429v.214a1.565 1.565 0 01-.482.107l-.482.161a1.076 1.076 0 00-.429.215.961.961 0 00-.375.268 1.42 1.42 0 00-.267.321 1.01 1.01 0 00-.107.429.911.911 0 00.053.374c.042.096.096.187.161.268a.94.94 0 00.268.215.92.92 0 00.375.054c.145.008.29-.01.428-.054l.322-.161c.107-.054.16-.107.268-.16a.94.94 0 00.267-.215v.482h.696v-2.735a.794.794 0 00-.054-.374 1.12 1.12 0 00-.214-.322l.002.002zm-.43 2.676c-.055.054-.162.107-.215.161a.406.406 0 01-.215.107c-.054.054-.16.054-.215.107-.053 0-.16.054-.214.054a.322.322 0 01-.215-.054l-.16-.16a.279.279 0 01-.108-.215.402.402 0 01-.053-.268.483.483 0 01.053-.268c.054-.053.107-.16.161-.214.078-.085.169-.157.268-.215l.322-.16.321-.161a.761.761 0 01.322-.107v1.392l-.053.001zm1.713-4.5v5.25h.697V44.41h-.215l-.482.214zm3.161 4.821a.322.322 0 01-.215.054.197.197 0 01-.16-.054.115.115 0 01-.107-.107l-.107-.107c0-.053-.054-.107-.054-.16V46.5h.803v-.322h-.8v-1.233h-.215c-.054.16-.054.375-.107.538a1.076 1.076 0 01-.214.428l-.322.322a1.28 1.28 0 01-.482.107v.16h.643v2.57a.68.68 0 00.054.322c.053.107.053.215.107.268a.74.74 0 00.214.161.68.68 0 00.322.054 1.08 1.08 0 00.59-.161c.15-.097.277-.225.374-.375l-.16-.054-.162.161-.002-.002zm3.752-2.568a1.342 1.342 0 00-.214-.375.94.94 0 00-.267-.214.777.777 0 00-.375-.107 1.483 1.483 0 00-.696.16 3.037 3.037 0 00-.697.538v-2.522h-.214l-.538.214v5.25h.696v-2.679c.107-.053.16-.16.268-.214.107-.054.16-.107.268-.16.107-.055.16-.108.267-.108.107 0 .161-.054.268-.054a.608.608 0 01.429.161.8.8 0 01.16.538v2.464h.697v-2.627a.717.717 0 00-.054-.267l.002.002z"/>
    <path d="M39.49 16.339c-.428.268-.857.538-1.125.696a51.906 51.906 0 00-2.143 1.554 66.106 66.106 0 00-8.732 7.929h-5.732S35.793 14.41 42.222 13.446c5.732-.803 7.983 3.321 7.5 7.821a5.336 5.336 0 00-.054-1.607 5.826 5.826 0 00-1.392-2.946 5.36 5.36 0 00-2.197-1.5 6.137 6.137 0 00-2.625-.375 10.856 10.856 0 00-3.964 1.5"/>
    <path d="M18.223 16.339c.428.268.857.538 1.125.696a51.906 51.906 0 012.142 1.554 66.106 66.106 0 018.732 7.929h5.732S21.92 14.41 15.491 13.446c-5.732-.803-7.983 3.321-7.5 7.821a5.336 5.336 0 01.053-1.607 5.826 5.826 0 011.393-2.946 5.36 5.36 0 012.197-1.5 6.137 6.137 0 012.625-.375c1.407.234 2.754.744 3.964 1.5"/>
    <path fill-rule="nonzero" d="M28.51 40.017h-2.57v-.16c.054-.429.107-.911.107-1.18 0-1.553-.696-3.374-2.625-3.374a3.186 3.186 0 00-1.821.696 5.554 5.554 0 00-1.554 1.607c-.482.696-.803 1.5-1.232 2.25-.054.054-.054.16-.107.214h-.06v-3.108h-.8v3H15.6v-.322c0-3.214-2.304-4.34-4.286-4.34H8.258v.697h2.947c2.197 0 3.536 1.447 3.536 3.857v.16H4.99v-5.086a4.33 4.33 0 00-.804-.054c-1.447 0-3.59 1.016-3.59 3.268-.03.699.267 1.372.804 1.82a2.702 2.702 0 001.821.644h.269l.482-.538.054-.054h-.59a1.842 1.842 0 01-1.982-1.928 2.331 2.331 0 01.91-1.982 2.694 2.694 0 011.555-.59h.267v5.036h25.125V31.5h-.802v8.517zm-3.321-.107v.107H19.51l.054-.16c.482-2.197 2.464-3.911 3.857-3.911.428 0 1.875.214 1.875 2.893 0 .107-.054.696-.107 1.071h-.001zm6.643.697h.802v-9.108h-.805l.003 9.108zM2.69 33.59a.59.59 0 100-1.178.59.59 0 000 1.178zm35.945.054a.59.59 0 10-.589-.59.633.633 0 00.59.59zm-34.18-.054a.59.59 0 100-1.178.59.59 0 000 1.178zm42.377 7.018h.803v-9.11h-.806l.003 9.11zm-10.289-2.415a2.488 2.488 0 002.626 2.41h1.768v-5.678a3.294 3.294 0 00-.75-.054c-2.036 0-3.644 1.447-3.644 3.322zm3.59 1.82h-.75a1.837 1.837 0 01-1.982-1.928 2.48 2.48 0 012.464-2.57h.268v4.499zM50.74 32.41a.59.59 0 100 1.179.59.59 0 000-1.179zm5.839 2.625c-2.036 0-3.696 1.393-3.696 3.215a2.39 2.39 0 002.518 2.357h.321l.375-.428.161-.161h-.538a1.812 1.812 0 01-1.98-1.824 2.558 2.558 0 012.464-2.41h.107v4.928c0 .964-.16 1.821-1.446 1.821a1.332 1.332 0 01-.429-.054l-.107.59c.229.048.463.067.697.053a1.88 1.88 0 002.035-2.092v-5.94c-.16 0-.321-.054-.482-.054zm-6.268 6.053c0 1.016-.428 1.447-1.446 1.447a.911.911 0 01-.375-.054l-.107.643c.23.04.463.059.697.054.589 0 2.035-.16 2.035-1.875v-5.571h-.804v5.357zm-9.857-8.678a.59.59 0 100 1.179.59.59 0 000-1.179zm3.16 8.679c0 1.016-.428 1.446-1.446 1.446a.911.911 0 01-.374-.053l-.107.643c.23.04.463.058.696.054a1.772 1.772 0 001.982-1.877v-5.57h-.803v5.357h.053zM16.936 19.392l-1.928-1.982-1.715 1.715-1.767-1.715-1.929 1.982 1.93 1.93 1.767-1.715 1.714 1.714zM37.83 4.822a9.31 9.31 0 00-.539-1.016 6.948 6.948 0 00-8.14-2.79A7.395 7.395 0 0028.83 0c-.132.33-.24.67-.322 1.016a6.874 6.874 0 00-8.087 2.788c-.2.327-.38.666-.538 1.016a6.814 6.814 0 014.768-2.25 6.953 6.953 0 00-2.732 5.518 7.2 7.2 0 00.107 1.125 6.782 6.782 0 013.268-4.768 6.949 6.949 0 00.375 6.911c.202.326.435.631.696.911a6.814 6.814 0 011.607-7.77c-.053.538-.053 1.072-.053 1.607.01 2.077.353 4.14 1.016 6.108a19.425 19.425 0 001.016-6.108c0-.538-.054-1.125-.054-1.607a6.993 6.993 0 011.607 7.77c.263-.28.497-.585.7-.91a6.949 6.949 0 00.375-6.911 6.943 6.943 0 013.268 4.768c.062-.372.097-.748.107-1.125a6.953 6.953 0 00-2.732-5.519 6.77 6.77 0 014.607 2.25"/>
    <path d="M21.812 16.232s4.982-7.179 13.767 2.143c8.304 8.786 11.357 7.339 13.715 4.5a4.323 4.323 0 01-.322.696c-.16.268-.268.428-.268.428a6.188 6.188 0 01-4.875 2.57c-2.625.054-5.892-1.553-9.535-5.57-8.197-9-12.482-4.767-12.482-4.767"/>
  </g>
</svg>
